<svg width="235" height="48" viewBox="0 0 235 48" fill="none" xmlns="http://www.w3.org/2000/svg"><path d="M56.624 20.53v14.452h-2.21l-7.966-9.786v9.786h-2.662V20.531h2.21l7.966 9.786v-9.786h2.662zM68.195 25c.862.778 1.291 1.95 1.291 3.52v6.462H67.05v-1.34c-.318.482-.766.85-1.352 1.103-.586.256-1.29.383-2.114.383-.824 0-1.548-.142-2.168-.422-.62-.28-1.1-.674-1.436-1.175a2.984 2.984 0 01-.506-1.705c0-.992.368-1.785 1.103-2.382.736-.598 1.896-.896 3.478-.896h2.85v-.165c0-.77-.23-1.364-.694-1.774-.46-.413-1.145-.62-2.052-.62-.621 0-1.23.096-1.828.287-.597.192-1.103.46-1.516.805l-1.011-1.877c.578-.44 1.271-.778 2.083-1.011a9.298 9.298 0 012.582-.353c1.624-.008 2.865.383 3.727 1.16zm-2.351 7.803c.502-.295.858-.72 1.065-1.268v-1.28h-2.663c-1.486 0-2.229.491-2.229 1.468 0 .467.184.839.56 1.114.371.276.888.414 1.547.414a3.394 3.394 0 001.72-.448zm13.57 1.577a3.03 3.03 0 01-1.103.56 5.022 5.022 0 01-1.371.184c-1.21 0-2.145-.318-2.808-.95-.662-.632-.992-1.555-.992-2.765v-5.305h-1.815v-2.065h1.815v-2.516h2.582v2.516h2.953v2.065h-2.953v5.243c0 .537.13.946.39 1.23.26.283.64.421 1.134.421.579 0 1.061-.15 1.444-.456l.724 1.839zm12.801-10.421v11.023H89.76v-1.405a4.143 4.143 0 01-1.548 1.145 4.99 4.99 0 01-2.003.402c-1.475 0-2.631-.41-3.478-1.23-.846-.82-1.268-2.033-1.268-3.642v-6.293h2.582v5.944c0 .992.222 1.732.67 2.218.448.49 1.084.732 1.908.732.923 0 1.654-.288 2.198-.858.544-.571.816-1.395.816-2.467V23.96h2.578zm9.763-.127v2.456a3.224 3.224 0 00-.598-.062c-1.003 0-1.788.291-2.351.877-.563.586-.847 1.429-.847 2.528v5.347h-2.581v-11.02h2.455v1.61c.743-1.157 2.049-1.736 3.922-1.736zM112.04 25c.861.778 1.29 1.95 1.29 3.52v6.462h-2.436v-1.34c-.317.482-.766.85-1.352 1.103-.586.257-1.29.383-2.114.383-.823 0-1.547-.142-2.168-.421-.62-.28-1.099-.675-1.436-1.176a2.984 2.984 0 01-.506-1.705c0-.992.368-1.785 1.103-2.382.736-.598 1.896-.896 3.478-.896h2.85v-.165c0-.77-.23-1.364-.693-1.773-.46-.414-1.146-.62-2.053-.62a5.96 5.96 0 00-1.827.286c-.598.192-1.103.46-1.517.805l-1.011-1.877c.578-.44 1.271-.778 2.083-1.011a9.303 9.303 0 012.582-.353c1.624-.007 2.869.383 3.727 1.16zm-2.352 7.803c.502-.295.858-.72 1.065-1.268v-1.28h-2.662c-1.486 0-2.229.491-2.229 1.468 0 .467.183.839.559 1.114.371.276.888.414 1.547.414.644-.004 1.218-.153 1.72-.448zm6.944-13.138h2.581v15.317h-2.581V19.665zm24.751.866v14.452h-2.685v-6.194h-7.473v6.194h-2.685V20.53h2.685v5.97h7.473v-5.97h2.685zM152.954 25c.862.778 1.291 1.95 1.291 3.52v6.462h-2.436v-1.34c-.318.482-.766.85-1.352 1.103-.587.257-1.291.383-2.115.383-.827 0-1.547-.142-2.168-.421-.62-.28-1.099-.675-1.436-1.176a2.984 2.984 0 01-.506-1.705c0-.992.368-1.785 1.104-2.382.735-.598 1.895-.896 3.477-.896h2.85v-.165c0-.77-.23-1.364-.693-1.773-.46-.414-1.145-.62-2.053-.62a5.96 5.96 0 00-1.827.286c-.598.192-1.103.46-1.517.805l-1.011-1.877c.578-.44 1.271-.778 2.083-1.011a9.303 9.303 0 012.582-.353c1.624-.007 2.865.383 3.727 1.16zm-2.352 7.803c.502-.295.858-.72 1.065-1.268v-1.28h-2.662c-1.486 0-2.229.491-2.229 1.468 0 .467.187.839.559 1.114.371.276.889.414 1.547.414a3.395 3.395 0 001.72-.448zm7.067-11.108a1.44 1.44 0 01-.475-1.103c0-.44.157-.808.475-1.103.318-.295.708-.444 1.176-.444.467 0 .861.142 1.176.421.317.284.474.636.474 1.065 0 .456-.153.835-.463 1.145-.31.31-.705.464-1.187.464-.468 0-.858-.146-1.176-.445zm-.123 2.264h2.582v11.023h-2.582V23.96zm12.345-.126v2.455a3.225 3.225 0 00-.598-.061c-1.003 0-1.788.29-2.351.877-.563.586-.847 1.428-.847 2.528v5.346h-2.581V23.96h2.455v1.609c.743-1.157 2.049-1.735 3.922-1.735zm10.97 10.395a7.07 7.07 0 01-2.766-2.655c-.666-1.13-.999-2.401-.999-3.818 0-1.417.337-2.69 1.011-3.819a7.173 7.173 0 012.777-2.654c1.176-.64 2.493-.962 3.953-.962 1.183 0 2.263.207 3.24.62a6.613 6.613 0 012.478 1.797l-1.735 1.632c-1.046-1.13-2.333-1.693-3.861-1.693-.992 0-1.877.218-2.662.651a4.66 4.66 0 00-1.838 1.808c-.441.77-.659 1.643-.659 2.62 0 .976.218 1.85.659 2.62a4.71 4.71 0 001.838 1.807c.785.437 1.674.652 2.662.652 1.528 0 2.815-.571 3.861-1.713l1.735 1.651a6.609 6.609 0 01-2.486 1.797c-.984.413-2.068.62-3.252.62-1.463 0-2.78-.322-3.956-.961zm12.022-14.563h2.582v15.317h-2.582V19.665zm6.09 2.03a1.443 1.443 0 01-.474-1.103c0-.44.157-.808.474-1.103.318-.295.709-.444 1.176-.444.468 0 .862.142 1.176.421.318.284.475.636.475 1.065 0 .456-.153.835-.463 1.145-.311.31-.705.464-1.188.464-.467 0-.858-.146-1.176-.445zm-.122 2.264h2.581v11.023h-2.581V23.96zm15.566 1.091c.839.813 1.26 2.015 1.26 3.613v6.315h-2.581v-5.982c0-.962-.226-1.69-.682-2.18-.456-.486-1.103-.731-1.942-.731-.95 0-1.701.287-2.252.858-.552.57-.827 1.394-.827 2.466v5.573h-2.582V23.96h2.455v1.425c.425-.51.962-.896 1.609-1.157.647-.26 1.375-.39 2.187-.39 1.398-.004 2.513.402 3.355 1.214zm4.665-3.355a1.44 1.44 0 01-.475-1.103c0-.44.157-.808.475-1.103.318-.295.709-.444 1.176-.444.468 0 .862.142 1.176.421.318.284.475.636.475 1.065 0 .456-.153.835-.463 1.145-.311.31-.705.464-1.188.464-.467 0-.862-.146-1.176-.445zm-.126 2.264h2.582v11.023h-2.582V23.96zm7.948 10.445a5.322 5.322 0 01-2.126-2.01c-.51-.863-.762-1.835-.762-2.923s.256-2.057.762-2.911a5.35 5.35 0 012.114-2.003c.9-.483 1.931-.724 3.087-.724 1.088 0 2.042.218 2.858.658a4.26 4.26 0 011.846 1.9l-1.981 1.157c-.317-.51-.712-.892-1.187-1.145a3.273 3.273 0 00-1.559-.383c-.961 0-1.762.314-2.394.938-.632.628-.95 1.463-.95 2.509 0 1.046.315 1.88.939 2.509.624.628 1.429.938 2.405.938a3.23 3.23 0 001.559-.383c.475-.253.87-.636 1.187-1.145l1.981 1.156a4.46 4.46 0 01-1.869 1.912c-.82.448-1.766.67-2.839.67-1.137 0-2.164-.237-3.071-.72z" fill="#343845"/><path d="M30.238 33.083c0 8.437-7.01 15.24-15.524 14.907C6.958 47.683.658 41.34.41 33.58a14.866 14.866 0 011.221-6.442l.008-.02.23-.505.008-.015L13.608 1.1c.674-1.467 2.753-1.467 3.427 0L20.2 7.983c-2.083 4.221-6.825 14.072-8.223 19.101-1.812 6.508-.483 10.488 4.098 10.246 4.577-.241 3.677-5.243 2.65-6.932-1.026-1.686-2.83-3.616-2.531-7.232.23-2.773 3.44-9.978 4.922-13.187l7.603 16.535.28.605.007.019a14.809 14.809 0 011.233 5.945z" fill="url(#paint0_linear)"/><defs><linearGradient id="paint0_linear" x1="15.32" y1="-1.783" x2="15.32" y2="56.578" gradientUnits="userSpaceOnUse"><stop stop-color="#3CCD74"/><stop offset="1" stop-color="#29B6F6"/></linearGradient></defs></svg>