<svg width="31" height="48" viewBox="0 0 31 48" fill="none" xmlns="http://www.w3.org/2000/svg"><path d="M30.238 33.083c0 8.437-7.01 15.24-15.524 14.907C6.958 47.683.657 41.34.408 33.58a14.866 14.866 0 011.222-6.442l.008-.02.23-.505.007-.015L13.607 1.1c.674-1.467 2.754-1.467 3.428 0L20.2 7.983c-2.084 4.221-6.825 14.072-8.223 19.101-1.812 6.508-.483 10.488 4.098 10.246 4.577-.241 3.677-5.243 2.65-6.932-1.026-1.686-2.83-3.616-2.531-7.232.23-2.773 3.44-9.978 4.921-13.187l7.603 16.535.28.605.008.019a14.807 14.807 0 011.233 5.945z" fill="url(#paint0_linear)"/><defs><linearGradient id="paint0_linear" x1="15.319" y1="-1.783" x2="15.319" y2="56.578" gradientUnits="userSpaceOnUse"><stop stop-color="#3CCD74"/><stop offset="1" stop-color="#29B6F6"/></linearGradient></defs></svg>