<svg width="72" height="72" viewBox="0 0 72 72" fill="none" xmlns="http://www.w3.org/2000/svg"><path d="M71.36 12.766c.877 2.333.867 4.926-.117 7.216-.808 1.879-2.344 3.778-5.23 4.815-9.468 3.401-9.431-15.677-9.431-15.677l14.553 3.05.224.596zM1.086 60.454c-.878-2.333-.868-4.925.117-7.215.808-1.88 2.343-3.779 5.23-4.816 9.467-3.401 9.43 15.678 9.43 15.678L1.31 61.05l-.224-.597z" fill="#90E2AF"/><path d="M35.909 71.908c19.831 0 35.908-16.077 35.908-35.908C71.817 16.168 55.74.09 35.91.09 16.077.091 0 16.168 0 36c0 19.83 16.077 35.908 35.909 35.908z" fill="#3CCD74"/><path d="M71.796 37.21c.013-.403.023-.805.023-1.21 0-.405-.01-.807-.023-1.21H54.671c-.08-5.065-.664-9.96-1.703-14.44 4.743-.57 9.286-1.377 13.51-2.414a1.21 1.21 0 00.374-.163 35.88 35.88 0 00-1.336-2.094c-4.116.991-8.535 1.764-13.15 2.308-.794-2.859-1.782-5.518-2.952-7.91-2.202-4.503-4.897-7.743-7.869-9.545a36.167 36.167 0 00-11.272 0c-2.973 1.802-5.667 5.043-7.87 9.545-1.169 2.392-2.157 5.051-2.951 7.91-4.615-.544-9.034-1.317-13.15-2.309a35.936 35.936 0 00-1.343 2.106c.104.063.218.112.341.142 4.236 1.042 8.793 1.852 13.55 2.424-1.039 4.48-1.622 9.375-1.703 14.44H.024a32.558 32.558 0 00-.002 2.42h17.126c.094 5.961.886 11.684 2.297 16.777-4.44.513-8.711 1.232-12.707 2.151-.16.037-.304.104-.43.193.482.7.987 1.38 1.515 2.043 3.885-.87 8.027-1.551 12.333-2.034a43.845 43.845 0 002.248 5.583c2.202 4.503 4.897 7.743 7.869 9.545a36.16 36.16 0 0011.272 0c2.973-1.802 5.667-5.042 7.87-9.545.845-1.73 1.597-3.6 2.248-5.583 4.305.483 8.448 1.164 12.332 2.034a36.029 36.029 0 001.515-2.043 1.206 1.206 0 00-.43-.193c-3.995-.919-8.267-1.638-12.706-2.151 1.41-5.093 2.202-10.816 2.297-16.778h17.125zM34.7 70.602c-3.762-.603-7.32-4.008-10.124-9.743a41.006 41.006 0 01-1.957-4.775A142.91 142.91 0 0134.7 55.48v15.122zm0-17.54c-4.348.035-8.647.26-12.817.665-1.42-4.975-2.22-10.617-2.317-16.519H34.7v15.854zm0-18.272H19.566c.081-4.992.666-9.798 1.705-14.172 4.355.443 8.859.687 13.43.724V34.79zm0-15.866a142.417 142.417 0 01-12.811-.672c.734-2.568 1.633-4.958 2.687-7.114C27.381 5.405 30.938 2 34.7 1.397v17.528zm2.418-17.528c3.762.603 7.32 4.009 10.124 9.743 1.054 2.155 1.953 4.545 2.688 7.113-4.157.41-8.453.636-12.812.672V1.397zM47.242 60.86c-2.804 5.735-6.361 9.14-10.124 9.743V55.48c4.096.034 8.147.236 12.08.604a40.988 40.988 0 01-1.956 4.775zm2.693-7.132c-4.17-.405-8.468-.63-12.817-.665V37.21h15.134c-.096 5.902-.896 11.544-2.317 16.519zM37.118 34.79V21.343c4.57-.037 9.075-.281 13.43-.724 1.038 4.374 1.623 9.18 1.704 14.172H37.118z" fill="#2DB05F"/><path d="M35.91.09c-1.513 0-3.003.095-4.466.277C49.168 2.566 62.887 17.68 62.887 36c0 18.32-13.719 33.434-31.443 35.633 1.463.182 2.953.276 4.466.276 19.832 0 35.909-16.077 35.909-35.909 0-19.832-16.077-35.91-35.91-35.91z" fill="#2DB05F"/><path d="M65.08 56.138a109.83 109.83 0 00-7.445-1.432c-.465.76-.957 1.5-1.475 2.22 2.702.403 5.323.885 7.835 1.448.126-.158.25-.316.373-.476l.045-.06c.378-.492.744-.995 1.097-1.507a1.206 1.206 0 00-.43-.193zm6.716-21.348h-8.932c.014.403.023.805.023 1.21 0 .405-.01.807-.023 1.21h8.932a49.373 49.373 0 00.022-1.21 36.766 36.766 0 00-.022-1.21zM35.053.102a37.73 37.73 0 00-1.15.045l-.183.01c-.215.013-.43.028-.643.045l-.098.008c-.184.015-.368.031-.552.05l-.182.018a26.31 26.31 0 00-.491.053l-.16.018-.144.02c1.942.24 3.835.637 5.668 1.175v-.147c1.154.185 2.288.635 3.387 1.333a35.834 35.834 0 016.83 3.687c-1.742-2.633-3.697-4.616-5.79-5.885a37.111 37.111 0 00-.548-.08L40.76.417a36.378 36.378 0 00-.514-.066l-.29-.033c-.162-.018-.324-.037-.487-.053a36.426 36.426 0 00-.718-.063c-.117-.01-.234-.016-.351-.025A35.295 35.295 0 0037.025.11L36.743.1a36.531 36.531 0 00-1.487-.004l-.203.005zm23.823 19.394a106.33 106.33 0 007.603-1.56c.137-.034.261-.09.373-.163a36.078 36.078 0 00-.984-1.573l-.007-.01a36.255 36.255 0 00-.345-.511 105.81 105.81 0 01-7.904 1.577c.447.73.868 1.477 1.264 2.24zM37.025 71.89c.183-.005.365-.012.547-.02.112-.006.224-.01.336-.017l.492-.031c.117-.008.234-.015.351-.025.24-.018.48-.04.718-.063.163-.016.325-.035.488-.053l.29-.033a34.582 34.582 0 001.298-.18c2.093-1.269 4.048-3.252 5.79-5.885a35.822 35.822 0 01-6.83 3.687c-1.1.698-2.233 1.148-3.387 1.333v-.147a35.73 35.73 0 01-5.668 1.176l.145.019.16.018c.162.019.326.037.49.053l.183.019c.183.017.367.034.55.049l.1.008c.213.017.427.032.642.045l.183.01a36.2 36.2 0 001.15.045l.203.005a35.515 35.515 0 001.487-.004l.282-.009z" fill="#248D4C"/><path d="M36.904 47.335l6.668 2.462a.292.292 0 01.089.495C31.554 60.585 15.708 63.76.578 58.628c.106.61.269 1.211.488 1.797l.224.596c3.23 7.555 11.4 11.661 19.41 9.839 10.618-2.416 20.395-8.03 27.595-15.833a.29.29 0 01.485.092l2.714 7.122a.29.29 0 00.554-.033l5.1-20.4a.29.29 0 00-.358-.35L36.93 46.78a.29.29 0 00-.026.554zm-1.363-21.45l-6.667-2.462a.292.292 0 01-.09-.495C40.892 12.635 56.738 9.46 71.869 14.592a10.014 10.014 0 00-.489-1.796l-.224-.597C67.925 4.645 59.758.538 51.746 2.361c-10.617 2.415-20.394 8.03-27.594 15.832a.29.29 0 01-.486-.092l-2.714-7.122a.29.29 0 00-.554.033l-5.099 20.4a.29.29 0 00.357.35l19.861-5.323a.29.29 0 00.026-.554z" fill="#C7F1D7"/></svg>