<svg width="32" height="32" viewBox="0 0 32 32" fill="none" xmlns="http://www.w3.org/2000/svg"><g clip-path="url(#clip0)"><path d="M16 32c8.837 0 16-7.163 16-16 0-8.836-7.163-16-16-16S0 7.164 0 16c0 8.837 7.163 16 16 16z" fill="#fff"/><path d="M20.022 16.626h-2.855v10.46h-4.326v-10.46h-2.057V12.95h2.057v-2.378c0-1.701.809-4.365 4.365-4.365l3.204.014v3.568h-2.325c-.382 0-.918.19-.918 1.002v2.163H20.4l-.378 3.672z" fill="#2DB05F"/></g><defs><clipPath id="clip0"><path fill="#fff" d="M0 0h32v32H0z"/></clipPath></defs></svg>