<svg width="24" height="24" viewBox="0 0 24 24" fill="none" xmlns="http://www.w3.org/2000/svg"><path clip-rule="evenodd" d="M18.965 16.61l-1.174-1.173a1.5 1.5 0 00-2.12 0l-.922.922a.71.71 0 01-.785.158c-1.335-.585-2.655-1.472-3.832-2.649a12.645 12.645 0 01-2.642-3.817.733.733 0 01.162-.811l.826-.826c.67-.671.67-1.62.085-2.206L7.39 5.035a2 2 0 00-2.828 0l-.652.651c-.741.741-1.05 1.81-.85 2.87.494 2.613 2.012 5.474 4.46 7.923 2.45 2.449 5.31 3.967 7.924 4.461 1.06.2 2.129-.109 2.87-.85l.65-.651a2 2 0 000-2.829v0z" stroke="#fff" stroke-width="2" stroke-linecap="round" stroke-linejoin="round"/><path d="M13 6.991a3.944 3.944 0 012.854 1.155m2.828-2.828A8.012 8.012 0 0013 2.964M17.009 11a3.944 3.944 0 00-1.155-2.854m2.828-2.828A8.012 8.012 0 0121.036 11" stroke="#fff" stroke-width="2" stroke-linecap="round" stroke-linejoin="round"/></svg>