<svg width="64" height="72" viewBox="0 0 64 72" fill="none" xmlns="http://www.w3.org/2000/svg"><path d="M48.502 72H5.745a5.01 5.01 0 01-5.01-5.01V8.74a5.01 5.01 0 015.01-5.01h42.757a5.01 5.01 0 015.01 5.01v58.25a5.01 5.01 0 01-5.01 5.01z" fill="#3CCD74"/><path d="M48.502 3.73h-2.378V72h2.378a5.01 5.01 0 005.01-5.01V8.74a5.01 5.01 0 00-5.01-5.01z" fill="#2DB05F"/><path d="M48.497 3.73H5.743v61.465a2.267 2.267 0 002.281 2.267l38.222-.245a2.267 2.267 0 002.251-2.266V3.73z" fill="#E3F8EB"/><path d="M41.133 3.73v63.52l5.112-.033a2.267 2.267 0 002.252-2.266V3.73h-7.364z" fill="#E3F8EB"/><path d="M34.721 7.619H19.526a2.415 2.415 0 01-2.416-2.415V2.415A2.415 2.415 0 0119.526 0H34.72a2.415 2.415 0 012.416 2.415v2.788A2.415 2.415 0 0134.72 7.62z" fill="#696874"/><path d="M34.721 0h-4.948v7.619h4.948a2.415 2.415 0 002.416-2.415V2.415A2.415 2.415 0 0034.72 0z" fill="#343845"/><path d="M28.004 50.313c7.907 0 14.316-6.41 14.316-14.316 0-7.906-6.41-14.316-14.316-14.316-7.906 0-14.316 6.41-14.316 14.316 0 7.907 6.41 14.316 14.316 14.316z" fill="#3CCD74"/><path d="M38.127 25.874c-3.74-3.74-9.035-4.974-13.805-3.71 2.36.626 4.59 1.86 6.441 3.71 5.59 5.59 5.59 14.655 0 20.246a14.245 14.245 0 01-6.44 3.71c4.769 1.264 10.064.03 13.804-3.71 5.591-5.59 5.591-14.655 0-20.246z" fill="#2DB05F"/><path d="M35.766 33.559h-5.323v-5.323c0-.758-.614-1.372-1.372-1.372h-2.133c-.758 0-1.372.614-1.372 1.372v5.323h-5.323c-.758 0-1.372.614-1.372 1.372v2.133c0 .757.614 1.372 1.372 1.372h5.323v5.322c0 .758.614 1.372 1.372 1.372h2.133c.758 0 1.372-.614 1.372-1.372v-5.322h5.323c.757 0 1.372-.615 1.372-1.373v-2.132c0-.758-.615-1.372-1.372-1.372z" fill="#fff"/><path d="M42.794 64.73l-5.049 6.832c-.686.928-2.153.258-1.9-.868l1.858-8.289c.088-.395.218-.78.386-1.148l19.68-43.083a1.954 1.954 0 012.588-.965l1.766.806a1.954 1.954 0 01.965 2.59L43.41 63.686a5.835 5.835 0 01-.615 1.044z" fill="#3CCD74"/><path d="M37.703 62.405l-1.858 8.289c-.253 1.126 1.214 1.796 1.9.868l5.05-6.831-5.092-2.326z" fill="#696874"/><path d="M54.847 24.57l5.32 2.43 1.517-3.32-5.32-2.43-1.517 3.32z" fill="#F2C94C"/><path d="M62.123 18.015l-1.766-.806a1.954 1.954 0 00-2.59.965l-1.404 3.076 5.32 2.43 1.405-3.076a1.954 1.954 0 00-.965-2.589z" fill="#696874"/></svg>