<svg width="100" height="80" viewBox="0 0 100 80" fill="none" xmlns="http://www.w3.org/2000/svg"><path d="M0 40h38a2 2 0 012 2v36a2 2 0 01-2 2H2a2 2 0 01-2-2V40z" fill="#3CCD74"/><path fill-rule="evenodd" clip-rule="evenodd" d="M40 11.6c0 1.105-.897 1.992-1.998 2.076A26.399 26.399 0 0013.6 40H0A40 40 0 0138 .05c1.104-.055 2 .845 2 1.95v9.6z" fill="#3CCD74"/><path d="M60 40h38a2 2 0 012 2v36a2 2 0 01-2 2H62a2 2 0 01-2-2V40z" fill="#3CCD74"/><path fill-rule="evenodd" clip-rule="evenodd" d="M100 11.6c0 1.105-.897 1.992-1.998 2.076A26.399 26.399 0 0073.6 40H60A40.002 40.002 0 0198 .05c1.104-.055 2 .845 2 1.95v9.6z" fill="#3CCD74"/></svg>