<svg width="32" height="32" viewBox="0 0 32 32" fill="none" xmlns="http://www.w3.org/2000/svg"><g clip-path="url(#clip0)"><path d="M16 32c8.837 0 16-7.163 16-16S24.837 0 16 0 0 7.163 0 16s7.163 16 16 16z" fill="#fff"/><path d="M19.23 7.385h-6.46a5.385 5.385 0 00-5.385 5.384v6.462a5.385 5.385 0 005.384 5.384h6.462a5.385 5.385 0 005.384-5.384v-6.462a5.385 5.385 0 00-5.384-5.384zM23 19.23c0 2.079-1.69 3.77-3.77 3.77h-6.46A3.773 3.773 0 019 19.23v-6.46C9 10.69 10.69 9 12.77 9h6.46C21.31 9 23 10.69 23 12.77v6.46z" fill="#2DB05F"/><path d="M16 11.692a4.308 4.308 0 100 8.616 4.308 4.308 0 000-8.616zm0 7A2.696 2.696 0 0113.308 16 2.695 2.695 0 0116 13.308 2.695 2.695 0 0118.692 16 2.696 2.696 0 0116 18.692zm4.63-6.749a.574.574 0 100-1.148.574.574 0 000 1.148z" fill="#2DB05F"/></g><defs><clipPath id="clip0"><path fill="#fff" d="M0 0h32v32H0z"/></clipPath></defs></svg>