<svg width="80" height="80" viewBox="0 0 80 80" fill="none" xmlns="http://www.w3.org/2000/svg"><path d="M51.167 24.608a.97.97 0 01-1.49-.226l-3.943-6.725a.97.97 0 01.143-1.169l1.256-1.285a.97.97 0 00.072-1.273l-3.531-4.548a.857.857 0 00-1.354 0l-3.532 4.548a.97.97 0 00.073 1.273l1.255 1.285a.97.97 0 01.143 1.169l-3.942 6.725a.97.97 0 01-1.49.226l-8.588-7.842c-.588-.537-1.482.143-1.121.853l7.971 15.715h16.652l5.234-10.318a.857.857 0 00-.703-1.243l-3.105 2.835z" fill="#74DB9C"/><path d="M59.754 16.766l-5.483 5.007-5.864 11.561h4.497l7.972-15.715c.36-.71-.534-1.39-1.122-.853z" fill="#58D488"/><path d="M60.2 19.733a2.746 2.746 0 100-5.493 2.746 2.746 0 000 5.493zm-34.406 0a2.746 2.746 0 100-5.493 2.746 2.746 0 000 5.493z" fill="#2DB05F"/><path d="M52.157 36.41v-1.403a2.203 2.203 0 00-2.203-2.204H32.803a2.203 2.203 0 000 4.407h18.02l1.334-.8z" fill="#3CCD74"/><path d="M53.19 32.803h-4.57c1.217 0 2.204.987 2.204 2.204v2.203h2.367a2.203 2.203 0 100-4.407z" fill="#2DB05F"/><path d="M20.9 23.723h-.87v-.87a.817.817 0 10-1.634 0v.87h-.87a.817.817 0 000 1.633h.87v.87a.817.817 0 001.634 0v-.87h.87a.817.817 0 000-1.633zm43.732 6.642h-.87v-.87a.817.817 0 10-1.633 0v.87h-.87a.817.817 0 000 1.633h.87v.87a.817.817 0 001.633 0v-.87h.87a.817.817 0 100-1.633zM53.944 6.686h-.87v-.87a.817.817 0 10-1.634 0v.87h-.87a.817.817 0 000 1.634h.87v.87a.817.817 0 101.634 0v-.87h.87a.817.817 0 000-1.634z" fill="#3CCD74"/><path d="M57.202 53.581c.493.05.988-.082 1.393-.373l9.084-6.534a3.466 3.466 0 011.591-.628.288.288 0 00.25-.294c-.025-1.15-.541-2.424-1.488-3.1a3.481 3.481 0 00-4.897.862l-6.41 9.242c-.21.303-.494.54-.82.693l1.297.132z" fill="#FFBD86"/><path d="M67.718 43.514c.106-.154.223-.296.348-.427a.288.288 0 00-.031-.434l-.003-.002a3.481 3.481 0 00-4.897.863l-6.41 9.242c-.21.303-.494.54-.82.693l1.297.132c.493.05.988-.083 1.393-.374l4.75-3.415a.288.288 0 00.068-.07l4.305-6.208z" fill="#F6A96C"/><path d="M72.65 47.516a3.526 3.526 0 00-4.971-.937l-8.996 6.338a2.351 2.351 0 01-1.587.417l-4.721-.47c-.454-.045-.616-.636-.24-.894a3.833 3.833 0 001.644-2.704 3.85 3.85 0 00-3.252-4.265l-15.619-2.388a6.916 6.916 0 00-5.027 1.18l-8.291 5.842a.29.29 0 00-.07.404l9.265 13.01a.289.289 0 00.378.083 21.857 21.857 0 0111.054-2.847l14.073.172a11.26 11.26 0 006.76-2.048l8.623-6.076c1.555-1.095 2.024-3.232.978-4.817z" fill="#FED2A4"/><path d="M28.555 47.938l5.881-4.144c.309-.218.633-.407.969-.57.258-.124.205-.504-.078-.547l-.419-.064a6.916 6.916 0 00-5.027 1.18l-8.291 5.842a.29.29 0 00-.07.404l9.265 13.01a.287.287 0 00.378.083c.913-.518 1.86-.967 2.833-1.347a.289.289 0 00.133-.437l-6.343-8.908a3.221 3.221 0 01.769-4.502zm22.381 4.787c.14.012.283-.07.315-.208a.198.198 0 01.124-.142 3.873 3.873 0 001.945-1.705 1.164 1.164 0 00-.208-.039l-10.498-.935a1.143 1.143 0 00-1.243 1.033 1.14 1.14 0 001.039 1.236l8.526.76z" fill="#FFBD86"/><path d="M15.097 50.498a.29.29 0 00-.403-.069L6.7 56.09c-.735.522-.922 1.52-.418 2.232l11.556 16.316c.504.712 1.509.866 2.244.346l7.992-5.661a.289.289 0 00.069-.403L15.096 50.5z" fill="#3CCD74"/><path d="M11.162 58.32c-.504-.71-.317-1.71.418-2.23l4.792-3.283a.29.29 0 00.073-.405l-1.348-1.904a.29.29 0 00-.403-.069L6.7 56.09c-.735.522-.922 1.52-.418 2.232l11.556 16.316c.504.712 1.509.866 2.244.346l1.682-1.192a.29.29 0 00.069-.403L11.162 58.32z" fill="#3CCD74"/><path d="M28 69.02a.29.29 0 00.404.069l3.278-2.322c.721-.51.897-1.501.393-2.212L20.518 48.238a1.589 1.589 0 00-2.217-.364l-3.279 2.322a.29.29 0 00-.068.404L28 69.02z" fill="#D9EDFF"/><path d="M21.1 49.568a.29.29 0 00.073-.405l-.655-.925a1.59 1.59 0 00-2.217-.364l-3.279 2.322a.29.29 0 00-.068.403l1.351 1.91a.29.29 0 00.4.07l4.395-3.01z" fill="#B4DBFF"/></svg>