<svg width="80" height="80" viewBox="0 0 80 80" fill="none" xmlns="http://www.w3.org/2000/svg"><path d="M63.405 19.53L52.955 4.59a1.384 1.384 0 00-2.267 0l-10.45 14.94c-6.551 9.37.151 22.236 11.584 22.236 11.432 0 18.135-12.866 11.583-22.235z" fill="#3CCD74"/><path d="M45.671 19.53l8.867-12.677-1.582-2.262a1.384 1.384 0 00-2.268 0l-10.45 14.94c-6.551 9.369.151 22.235 11.584 22.235.939 0 1.845-.088 2.716-.253-9.727-1.839-14.88-13.383-8.867-21.982z" fill="#3CCD74"/><path d="M58.047 24.45h-2.91a.463.463 0 01-.463-.464v-2.91a.463.463 0 00-.464-.463h-4.777a.463.463 0 00-.464.463v2.91a.463.463 0 01-.463.463h-2.91a.463.463 0 00-.464.464v4.777c0 .256.208.463.464.463h2.91c.256 0 .463.208.463.464v2.91c0 .256.208.463.464.463h4.777a.463.463 0 00.464-.463v-2.91c0-.256.207-.463.463-.463h2.91a.463.463 0 00.464-.463v-4.778a.463.463 0 00-.464-.463z" fill="#fff"/><path d="M57.596 54.29c.493.05.988-.082 1.393-.373l9.084-6.534a3.465 3.465 0 011.591-.628.288.288 0 00.25-.294c-.025-1.15-.541-2.423-1.488-3.1a3.481 3.481 0 00-4.898.863l-6.409 9.242c-.21.302-.494.54-.82.693l1.297.131z" fill="#FFBD86"/><path d="M68.112 44.224c.107-.154.223-.297.348-.428a.288.288 0 00-.031-.434c-.001 0-.002 0-.003-.002a3.481 3.481 0 00-4.898.864l-6.409 9.242c-.21.302-.494.54-.82.692l1.297.132c.493.05.988-.082 1.393-.373l4.75-3.416a.29.29 0 00.068-.07l4.305-6.207z" fill="#F6A96C"/><path d="M73.045 48.225a3.526 3.526 0 00-4.972-.937l-8.996 6.338a2.352 2.352 0 01-1.587.418l-4.721-.47c-.454-.046-.616-.637-.24-.895a3.832 3.832 0 001.644-2.704 3.85 3.85 0 00-3.252-4.265l-15.619-2.388a6.916 6.916 0 00-5.027 1.18l-8.291 5.842a.289.289 0 00-.069.404l9.264 13.01a.289.289 0 00.378.083 21.858 21.858 0 0111.054-2.846l14.073.17a11.246 11.246 0 006.76-2.047l8.623-6.076c1.556-1.095 2.024-3.231.978-4.817z" fill="#FED2A4"/><path d="M28.949 48.647l5.881-4.144c.309-.217.633-.407.969-.57.258-.123.205-.504-.078-.547l-.419-.064a6.916 6.916 0 00-5.027 1.181l-8.291 5.841a.29.29 0 00-.069.404l9.264 13.011c.086.12.249.156.378.082a21.92 21.92 0 012.834-1.347.289.289 0 00.132-.437l-6.343-8.908a3.221 3.221 0 01.769-4.502zm22.381 4.787c.14.012.283-.07.315-.207a.198.198 0 01.124-.142 3.875 3.875 0 001.945-1.706 1.166 1.166 0 00-.208-.039l-10.498-.935a1.143 1.143 0 00-1.243 1.033 1.14 1.14 0 001.039 1.236l8.526.76z" fill="#FFBD86"/><path d="M15.49 51.207a.29.29 0 00-.402-.069L7.095 56.8c-.735.52-.922 1.52-.418 2.231l11.557 16.316c.503.712 1.508.866 2.243.346l7.992-5.661a.29.29 0 00.069-.403L15.49 51.208z" fill="#3CCD74"/><path d="M11.556 59.03c-.504-.711-.317-1.71.419-2.23l4.791-3.283a.29.29 0 00.073-.406l-1.348-1.904a.29.29 0 00-.403-.069L7.095 56.8c-.735.52-.922 1.52-.418 2.231l11.557 16.316c.503.712 1.508.866 2.243.346l1.682-1.192a.289.289 0 00.069-.403L11.556 59.03z" fill="#3CCD74"/><path d="M28.395 69.73a.29.29 0 00.403.068l3.278-2.322c.721-.51.897-1.5.393-2.212L20.912 48.948a1.589 1.589 0 00-2.217-.364l-3.279 2.322a.29.29 0 00-.068.403l13.047 18.42z" fill="#D9EDFF"/><path d="M21.494 50.278a.29.29 0 00.073-.406l-.655-.925a1.589 1.589 0 00-2.217-.364l-3.279 2.323a.29.29 0 00-.068.403l1.352 1.908c.09.13.269.161.399.072l4.395-3.011z" fill="#B4DBFF"/></svg>