<svg width="180" height="36" viewBox="0 0 180 36" fill="none" xmlns="http://www.w3.org/2000/svg"><g clip-path="url(#clip0)" fill="#3CCD74"><path d="M43.968 15.398v10.839h-1.657l-5.975-7.34v7.34h-1.997V15.398h1.658l5.975 7.34v-7.34h1.996zm8.679 3.352c.646.584.968 1.463.968 2.64v4.847h-1.827V25.23a2.237 2.237 0 01-1.014.828c-.44.192-.968.287-1.586.287-.617 0-1.16-.106-1.626-.316a2.498 2.498 0 01-1.077-.882 2.238 2.238 0 01-.379-1.278c0-.744.276-1.339.827-1.787.552-.448 1.422-.672 2.609-.672h2.137v-.124c0-.577-.172-1.022-.52-1.33-.345-.31-.859-.465-1.54-.465-.465 0-.922.072-1.37.215a3.35 3.35 0 00-1.138.604l-.758-1.408c.434-.33.954-.583 1.563-.758a6.976 6.976 0 011.936-.265c1.218-.005 2.149.288 2.795.87zm-1.764 5.852a1.82 1.82 0 00.799-.95v-.96h-1.997c-1.114 0-1.672.368-1.672 1.1 0 .35.138.63.42.836.278.207.666.31 1.16.31.48-.003.911-.115 1.29-.336zm10.177 1.184a2.295 2.295 0 01-.827.419 3.759 3.759 0 01-1.028.138c-.908 0-1.609-.239-2.106-.713-.497-.473-.744-1.166-.744-2.074v-3.978h-1.361v-1.549h1.361v-1.887h1.936v1.887h2.215v1.549h-2.215v3.932c0 .403.098.71.294.922.195.213.48.317.85.317.433 0 .795-.112 1.083-.342l.543 1.379zm9.601-7.816v8.267H68.82v-1.054c-.31.37-.698.657-1.16.858a3.743 3.743 0 01-1.503.302c-1.106 0-1.974-.307-2.608-.922-.635-.615-.951-1.526-.951-2.732v-4.72h1.936v4.459c0 .744.166 1.298.502 1.663.337.367.814.549 1.431.549.692 0 1.241-.216 1.649-.644.408-.428.612-1.046.612-1.85V17.97h1.933zm7.323-.096v1.842a2.418 2.418 0 00-.448-.046c-.753 0-1.342.218-1.764.657-.423.44-.635 1.072-.635 1.896v4.01H73.2V17.97h1.841v1.207c.557-.868 1.537-1.302 2.942-1.302zm7.546.876c.646.584.968 1.463.968 2.64v4.847H84.67V25.23a2.238 2.238 0 01-1.014.828c-.44.192-.968.287-1.586.287-.617 0-1.16-.106-1.626-.316a2.497 2.497 0 01-1.077-.882 2.238 2.238 0 01-.38-1.278c0-.744.276-1.339.828-1.787.552-.448 1.422-.672 2.608-.672h2.138v-.124c0-.577-.173-1.022-.52-1.33-.345-.31-.86-.465-1.54-.465-.465 0-.922.072-1.37.215a3.35 3.35 0 00-1.138.604l-.758-1.408c.434-.33.953-.583 1.563-.758a6.976 6.976 0 011.936-.265c1.218-.005 2.151.288 2.795.87zm-1.764 5.852a1.82 1.82 0 00.799-.95v-.96h-1.997c-1.114 0-1.672.368-1.672 1.1 0 .35.138.63.42.836.278.207.666.31 1.16.31a2.53 2.53 0 001.29-.336zm5.208-9.853h1.936v11.488h-1.936V14.749zm18.563.649v10.839h-2.013v-4.645h-5.605v4.645h-2.014V15.398h2.014v4.476h5.605v-4.476h2.013zm8.678 3.352c.647.584.968 1.463.968 2.64v4.847h-1.827V25.23a2.232 2.232 0 01-1.014.828c-.439.192-.968.287-1.585.287-.621 0-1.161-.106-1.626-.316-.466-.21-.825-.506-1.077-.882a2.237 2.237 0 01-.38-1.278c0-.744.276-1.339.828-1.787.551-.448 1.422-.672 2.608-.672h2.137v-.124c0-.577-.172-1.022-.52-1.33-.344-.31-.859-.465-1.539-.465-.466 0-.923.072-1.371.215a3.347 3.347 0 00-1.137.604l-.759-1.408a4.69 4.69 0 011.563-.758 6.974 6.974 0 011.936-.265c1.218-.005 2.149.288 2.795.87zm-1.763 5.852a1.82 1.82 0 00.798-.95v-.96h-1.996c-1.115 0-1.672.368-1.672 1.1 0 .35.141.63.419.836.279.207.667.31 1.161.31a2.55 2.55 0 001.29-.336zm5.3-8.33a1.079 1.079 0 01-.356-.828c0-.33.117-.606.356-.827.238-.221.531-.333.882-.333.35 0 .646.106.882.316.238.212.356.476.356.798 0 .342-.115.627-.348.86-.233.232-.528.347-.89.347-.351 0-.644-.11-.882-.333zm-.092 1.697h1.936v8.268h-1.936v-8.268zm9.258-.094v1.84a2.414 2.414 0 00-.448-.045c-.753 0-1.341.218-1.764.658-.422.44-.635 1.071-.635 1.896v4.01h-1.936v-8.265h1.842v1.207c.557-.868 1.536-1.301 2.941-1.301zm8.228 7.795a5.292 5.292 0 01-2.074-1.99c-.5-.847-.75-1.801-.75-2.864s.253-2.017.758-2.864a5.384 5.384 0 012.083-1.99c.882-.48 1.87-.722 2.964-.722.888 0 1.698.155 2.431.466a4.96 4.96 0 011.858 1.347l-1.301 1.224c-.784-.848-1.749-1.27-2.896-1.27-.744 0-1.407.164-1.996.488a3.494 3.494 0 00-1.379 1.356c-.33.578-.494 1.233-.494 1.965 0 .733.164 1.387.494 1.965.33.577.79 1.028 1.379 1.356.589.327 1.255.488 1.996.488 1.147 0 2.112-.428 2.896-1.284l1.301 1.238a4.958 4.958 0 01-1.864 1.348c-.738.31-1.551.465-2.439.465-1.097 0-2.086-.241-2.967-.721zm9.017-10.921h1.936v11.488h-1.936V14.749zm4.567 1.523a1.082 1.082 0 01-.356-.828c0-.33.118-.606.356-.827a1.25 1.25 0 01.882-.333c.351 0 .646.106.882.316.238.212.356.476.356.798 0 .342-.115.627-.347.86-.233.232-.529.347-.891.347-.35 0-.643-.11-.882-.333zm-.092 1.697h1.936v8.268h-1.936v-8.268zm11.675.819c.629.609.945 1.51.945 2.709v4.737h-1.937v-4.487c0-.721-.169-1.267-.511-1.635-.342-.365-.827-.548-1.456-.548-.713 0-1.276.215-1.689.643-.414.428-.621 1.046-.621 1.85v4.18h-1.936v-8.268h1.841v1.069a3.003 3.003 0 011.207-.868 4.361 4.361 0 011.64-.293c1.049-.003 1.885.302 2.517.91zm3.499-2.516a1.079 1.079 0 01-.356-.828c0-.33.117-.606.356-.827.238-.221.531-.333.882-.333.35 0 .646.106.882.316.238.212.356.476.356.798 0 .342-.115.627-.348.86-.232.232-.528.347-.89.347-.351 0-.647-.11-.882-.333zm-.095 1.697h1.936v8.268h-1.936v-8.268zm5.961 7.834a3.994 3.994 0 01-1.595-1.508c-.382-.647-.571-1.376-.571-2.192 0-.816.192-1.543.571-2.183.382-.64.911-1.14 1.586-1.503.675-.362 1.448-.543 2.315-.543.816 0 1.532.164 2.143.495a3.19 3.19 0 011.385 1.424l-1.485.868a2.355 2.355 0 00-.891-.859 2.454 2.454 0 00-1.169-.287c-.721 0-1.321.235-1.795.704-.474.47-.713 1.097-.713 1.881s.236 1.41.704 1.882c.468.47 1.072.704 1.804.704a2.42 2.42 0 001.169-.288c.357-.19.652-.477.891-.859l1.485.868a3.342 3.342 0 01-1.402 1.433c-.615.337-1.324.503-2.128.503-.854 0-1.624-.178-2.304-.54zm-147.499-.991c0 6.328-5.257 11.43-11.643 11.18-5.817-.23-10.543-4.987-10.73-10.807a11.15 11.15 0 01.917-4.832l.006-.014.172-.38.006-.01L11.706.824c.505-1.1 2.065-1.1 2.57 0l2.373 5.162c-1.562 3.166-5.119 10.554-6.167 14.326-1.359 4.88-.362 7.866 3.074 7.684 3.432-.18 2.757-3.932 1.987-5.199-.77-1.264-2.122-2.712-1.898-5.423.172-2.08 2.58-7.484 3.69-9.891l5.703 12.401.21.454.006.014a11.12 11.12 0 01.925 4.459z"/></g><defs><clipPath id="clip0"><path fill="#fff" d="M0 0h180v36H0z"/></clipPath></defs></svg>