<svg width="162" height="33" viewBox="0 0 162 33" fill="none" xmlns="http://www.w3.org/2000/svg"><path d="M39.303 14.115v9.935h-1.52l-5.476-6.728v6.728h-1.83v-9.935h1.519l5.477 6.728v-6.728h1.83zm7.956 3.073c.592.535.887 1.34.887 2.42v4.442h-1.675v-.921a2.051 2.051 0 01-.93.758c-.402.177-.887.264-1.453.264-.566 0-1.064-.098-1.49-.29a2.29 2.29 0 01-.988-.809 2.052 2.052 0 01-.347-1.171c0-.682.253-1.227.758-1.638.506-.411 1.303-.616 2.391-.616h1.96v-.114c0-.529-.159-.937-.477-1.219-.316-.284-.788-.426-1.412-.426a4.09 4.09 0 00-1.256.197c-.41.132-.758.316-1.043.553l-.695-1.29a4.296 4.296 0 011.433-.695 6.396 6.396 0 011.775-.243c1.116-.005 1.97.264 2.562.798zm-1.617 5.364c.345-.203.59-.495.732-.872v-.879h-1.83c-1.022 0-1.533.337-1.533 1.009a.9.9 0 00.385.766c.255.19.61.284 1.063.284.44-.002.835-.105 1.183-.308zm9.33 1.085a2.105 2.105 0 01-.759.384 3.455 3.455 0 01-.943.127c-.832 0-1.474-.219-1.93-.653-.455-.435-.682-1.07-.682-1.902v-3.647H49.41v-1.419h1.248v-1.73h1.775v1.73h2.03v1.42h-2.03v3.604c0 .369.09.65.269.846.179.195.44.29.78.29.397 0 .729-.103.992-.314l.498 1.264zm8.799-7.165v7.578h-1.688v-.966c-.284.34-.64.603-1.063.787a3.432 3.432 0 01-1.378.277c-1.013 0-1.809-.282-2.39-.845-.583-.564-.872-1.399-.872-2.505v-4.326h1.775v4.087c0 .682.152 1.19.46 1.524.309.338.746.503 1.312.503.635 0 1.137-.197 1.511-.59.374-.392.561-.958.561-1.695v-3.83h1.772zm6.712-.087v1.688a2.223 2.223 0 00-.41-.042c-.69 0-1.23.2-1.618.603-.387.402-.582.982-.582 1.738v3.676H66.1v-7.576h1.688v1.106c.51-.796 1.408-1.193 2.696-1.193zm6.918.803c.593.535.888 1.34.888 2.42v4.442h-1.675v-.921a2.051 2.051 0 01-.93.758c-.403.177-.887.264-1.453.264-.566 0-1.064-.098-1.49-.29a2.289 2.289 0 01-.988-.809 2.05 2.05 0 01-.348-1.171c0-.682.253-1.227.759-1.638.505-.411 1.303-.616 2.39-.616h1.96v-.114c0-.529-.158-.937-.477-1.219-.316-.284-.787-.427-1.411-.427-.427 0-.846.066-1.256.198a3.075 3.075 0 00-1.043.553l-.695-1.29a4.3 4.3 0 011.432-.695 6.395 6.395 0 011.775-.243c1.117-.005 1.972.264 2.562.798zm-1.617 5.364c.345-.203.59-.495.732-.872v-.879h-1.83c-1.021 0-1.532.337-1.532 1.009a.9.9 0 00.384.766c.256.19.611.284 1.064.284a2.32 2.32 0 001.182-.308zm4.775-9.032h1.774v10.53H80.56V13.52zm17.016.595v9.935h-1.847v-4.258h-5.137v4.258h-1.846v-9.935h1.846v4.103h5.138v-4.103h1.846zm7.955 3.073c.593.535.888 1.34.888 2.42v4.442h-1.675v-.921a2.054 2.054 0 01-.93.758c-.403.177-.887.264-1.453.264-.569 0-1.064-.098-1.491-.29a2.289 2.289 0 01-.987-.809 2.05 2.05 0 01-.348-1.171c0-.682.253-1.227.759-1.638.505-.411 1.303-.616 2.391-.616h1.959v-.114c0-.529-.158-.937-.477-1.219-.316-.284-.787-.427-1.411-.427-.427 0-.846.066-1.256.198a3.07 3.07 0 00-1.043.553l-.695-1.29a4.3 4.3 0 011.432-.695 6.395 6.395 0 011.775-.243c1.116-.005 1.97.264 2.562.798zm-1.617 5.364c.345-.203.59-.495.732-.872v-.879h-1.83c-1.021 0-1.532.337-1.532 1.009 0 .32.129.576.384.766.256.19.611.284 1.064.284a2.33 2.33 0 001.182-.308zm4.858-7.636a.99.99 0 01-.327-.759.99.99 0 01.327-.758c.218-.203.487-.306.808-.306.322 0 .593.098.809.29a.937.937 0 01.326.732c0 .313-.105.574-.318.787-.214.214-.485.32-.817.32-.321 0-.59-.101-.808-.306zm-.084 1.556h1.774v7.578h-1.774v-7.578zm8.486-.087v1.688a2.21 2.21 0 00-.41-.042c-.69 0-1.23.2-1.617.603-.387.403-.582.982-.582 1.738v3.676h-1.775v-7.576h1.688v1.106c.511-.796 1.409-1.193 2.696-1.193zm7.542 7.147a4.858 4.858 0 01-1.901-1.825c-.458-.777-.687-1.651-.687-2.626 0-.974.232-1.848.695-2.625a4.939 4.939 0 011.909-1.825c.809-.44 1.714-.66 2.718-.66.813 0 1.556.142 2.228.426a4.54 4.54 0 011.703 1.235l-1.193 1.122c-.719-.777-1.603-1.164-2.654-1.164-.682 0-1.29.15-1.83.447-.54.298-.961.711-1.264 1.243-.303.53-.453 1.13-.453 1.801 0 .672.15 1.272.453 1.802.303.529.724.942 1.264 1.242.54.3 1.151.448 1.83.448 1.051 0 1.935-.392 2.654-1.177l1.193 1.135c-.463.54-1.035.95-1.709 1.235a5.714 5.714 0 01-2.235.427c-1.006 0-1.912-.222-2.721-.661zm8.266-10.012h1.775v10.53h-1.775V13.52zm4.187 1.396a.992.992 0 01-.326-.759c0-.303.108-.555.326-.758.219-.203.487-.306.809-.306.321 0 .592.098.808.29a.935.935 0 01.327.732c0 .313-.106.574-.319.787-.213.214-.484.32-.816.32-.322 0-.59-.101-.809-.306zm-.084 1.556h1.775v7.578h-1.775v-7.578zm10.702.75c.577.558.866 1.385.866 2.483v4.343h-1.775v-4.113c0-.661-.155-1.162-.468-1.499-.314-.334-.759-.503-1.335-.503-.653 0-1.17.198-1.549.59-.379.393-.569.959-.569 1.696v3.831h-1.774v-7.578h1.688v.98c.292-.35.661-.617 1.106-.796a3.994 3.994 0 011.503-.268c.961-.003 1.728.276 2.307.834zm3.207-2.306a.99.99 0 01-.327-.759.99.99 0 01.327-.758c.218-.203.487-.306.808-.306.321 0 .592.098.808.29a.935.935 0 01.327.732c0 .313-.105.574-.319.787-.213.214-.484.32-.816.32-.321 0-.593-.101-.808-.306zm-.087 1.556h1.774v7.578h-1.774v-7.578zm5.464 7.181a3.659 3.659 0 01-1.461-1.383c-.35-.592-.524-1.261-.524-2.009s.176-1.414.524-2.001a3.683 3.683 0 011.453-1.377c.619-.332 1.327-.498 2.123-.498.748 0 1.403.15 1.964.453a2.92 2.92 0 011.269 1.306l-1.361.795a2.165 2.165 0 00-.816-.787 2.252 2.252 0 00-1.072-.264c-.661 0-1.211.216-1.646.646-.434.431-.653 1.006-.653 1.724 0 .72.216 1.293.645 1.725.429.432.982.645 1.654.645.387 0 .745-.087 1.072-.263.326-.174.597-.437.816-.787l1.361.795a3.06 3.06 0 01-1.285 1.314c-.563.308-1.214.46-1.951.46-.782 0-1.488-.162-2.112-.494z" fill="#343845"/><path d="M21.163 22.744c0 5.801-4.819 10.478-10.672 10.249-5.333-.21-9.665-4.571-9.836-9.906a10.22 10.22 0 01.84-4.43l.006-.013.158-.347.005-.01L9.729.756c.464-1.009 1.894-1.009 2.357 0l2.175 4.732C12.83 8.39 9.57 15.163 8.608 18.62c-1.246 4.474-.332 7.21 2.817 7.044 3.147-.166 2.528-3.605 1.822-4.767-.705-1.158-1.945-2.485-1.74-4.971.158-1.907 2.365-6.86 3.384-9.067l5.227 11.368.192.416.005.014a10.18 10.18 0 01.848 4.086z" fill="url(#paint0_linear)"/><defs><linearGradient id="paint0_linear" x1="10.907" y1="-1.226" x2="10.907" y2="38.897" gradientUnits="userSpaceOnUse"><stop stop-color="#3CCD74"/><stop offset="1" stop-color="#29B6F6"/></linearGradient></defs></svg>