<?xml version="1.0" standalone="no"?>
<!DOCTYPE svg PUBLIC "-//W3C//DTD SVG 20010904//EN"
 "http://www.w3.org/TR/2001/REC-SVG-20010904/DTD/svg10.dtd">
<svg version="1.0" xmlns="http://www.w3.org/2000/svg"
 width="1536.000000pt" height="1536.000000pt" viewBox="0 0 1536.000000 1536.000000"
 preserveAspectRatio="xMidYMid meet">
<metadata>
Created by potrace 1.14, written by Peter Selinger 2001-2017
</metadata>
<g transform="translate(0.000000,1536.000000) scale(0.100000,-0.100000)"
fill="#000000" stroke="none">
<path d="M7521 15350 c-136 -29 -260 -97 -341 -188 -52 -58 -112 -168 -195
-352 -26 -58 -125 -274 -220 -480 -175 -381 -350 -760 -609 -1323 -79 -171
-183 -397 -231 -502 -48 -104 -138 -300 -200 -435 -62 -135 -165 -360 -230
-500 -65 -140 -195 -424 -290 -630 -95 -206 -238 -517 -318 -690 -79 -173
-210 -457 -290 -630 -79 -173 -184 -400 -232 -505 -48 -104 -138 -300 -200
-435 -62 -135 -165 -360 -230 -500 -65 -140 -182 -394 -260 -565 -79 -170
-209 -454 -290 -630 -257 -557 -372 -891 -449 -1305 -215 -1141 -21 -2288 554
-3285 311 -540 750 -1036 1260 -1424 991 -754 2237 -1088 3477 -931 1065 136
2048 625 2804 1397 234 239 402 448 591 739 124 189 172 271 267 461 304 608
476 1278 499 1943 21 586 -47 1093 -219 1642 -64 204 -150 414 -336 818 -247
536 -487 1056 -638 1385 -78 171 -220 479 -315 685 -95 206 -223 485 -285 620
-62 135 -189 412 -283 615 -325 708 -525 1142 -663 1442 -76 166 -146 318
-156 337 l-18 35 -162 -357 c-265 -583 -497 -1123 -727 -1685 -277 -678 -535
-1432 -624 -1827 -53 -234 -65 -334 -65 -580 -2 -449 72 -770 269 -1180 90
-186 153 -291 382 -640 190 -289 250 -402 310 -585 141 -424 158 -866 47
-1191 -71 -204 -180 -358 -339 -476 -191 -142 -423 -212 -746 -225 -619 -24
-1074 210 -1307 672 -136 269 -198 545 -210 930 -14 472 62 992 243 1658 287
1059 1209 3222 2463 5782 l172 349 -140 306 c-77 168 -210 458 -296 645 -86
187 -229 498 -317 690 -273 597 -307 662 -375 731 -71 70 -164 127 -252 155
-75 23 -216 32 -280 19z"/>
</g>
</svg>
