<svg version="1.0" xmlns="http://www.w3.org/2000/svg" width="2048" height="2048" viewBox="0 0 1536 1536"><path d="M752.1 1c-13.6 2.9-26 9.7-34.1 18.8-5.2 5.8-11.2 16.8-19.5 35.2-2.6 5.8-12.5 27.4-22 48-17.5 38.1-35 76-60.9 132.3-7.9 17.1-18.3 39.7-23.1 50.2-4.8 10.4-13.8 30-20 43.5-6.2 13.5-16.5 36-23 50s-19.5 42.4-29 63-23.8 51.7-31.8 69c-7.9 17.3-21 45.7-29 63-7.9 17.3-18.4 40-23.2 50.5-4.8 10.4-13.8 30-20 43.5-6.2 13.5-16.5 36-23 50s-18.2 39.4-26 56.5c-7.9 17-20.9 45.4-29 63-25.7 55.7-37.2 89.1-44.9 130.5-21.5 114.1-2.1 228.8 55.4 328.5 31.1 54 75 103.6 126 142.4 99.1 75.4 223.7 108.8 347.7 93.1 106.5-13.6 204.8-62.5 280.4-139.7 23.4-23.9 40.2-44.8 59.1-73.9 12.4-18.9 17.2-27.1 26.7-46.1 30.4-60.8 47.6-127.8 49.9-194.3 2.1-58.6-4.7-109.3-21.9-164.2-6.4-20.4-15-41.4-33.6-81.8-24.7-53.6-48.7-105.6-63.8-138.5-7.8-17.1-22-47.9-31.5-68.5s-22.3-48.5-28.5-62c-6.2-13.5-18.9-41.2-28.3-61.5-32.5-70.8-52.5-114.2-66.3-144.2-7.6-16.6-14.6-31.8-15.6-33.7l-1.8-3.5-16.2 35.7c-26.5 58.3-49.7 112.3-72.7 168.5-27.7 67.8-53.5 143.2-62.4 182.7-5.3 23.4-6.5 33.4-6.5 58-.2 44.9 7.2 77 26.9 118 9 18.6 15.3 29.1 38.2 64 19 28.9 25 40.2 31 58.5 14.1 42.4 15.8 86.6 4.7 119.1-7.1 20.4-18 35.8-33.9 47.6-19.1 14.2-42.3 21.2-74.6 22.5-61.9 2.4-107.4-21-130.7-67.2-13.6-26.9-19.8-54.5-21-93-1.4-47.2 6.2-99.2 24.3-165.8 28.7-105.9 120.9-322.2 246.3-578.2l17.2-34.9-14-30.6c-7.7-16.8-21-45.8-29.6-64.5-8.6-18.7-22.9-49.8-31.7-69-27.3-59.7-30.7-66.2-37.5-73.1-7.1-7-16.4-12.7-25.2-15.5-7.5-2.3-21.6-3.2-28-1.9z"/></svg>