<svg width="235" height="48" viewBox="0 0 235 48" fill="none" xmlns="http://www.w3.org/2000/svg">
<path d="M56.6245 20.5309V34.9822H54.4144L46.4476 25.1961V34.9822H43.7856V20.5309H45.9957L53.9625 30.317V20.5309H56.6245Z" fill="#343845"/>
<path d="M68.1955 25.0007C69.0573 25.7783 69.4862 26.9503 69.4862 28.5207V34.9822H67.0502V33.6417C66.7323 34.1243 66.2842 34.492 65.6982 34.7448C65.1122 35.0014 64.4074 35.1278 63.5839 35.1278C62.7604 35.1278 62.0365 34.9861 61.416 34.7065C60.7955 34.4269 60.3168 34.0324 59.9797 33.5306C59.6427 33.0288 59.4741 32.462 59.4741 31.8262C59.4741 30.8341 59.8418 30.0413 60.5772 29.4438C61.3126 28.8463 62.4732 28.5475 64.055 28.5475H66.9047V28.3828C66.9047 27.6129 66.6749 27.0193 66.2114 26.6094C65.7518 26.1958 65.0662 25.9889 64.1585 25.9889C63.538 25.9889 62.929 26.0847 62.3314 26.2762C61.7339 26.4677 61.2283 26.7358 60.8147 27.0805L59.8035 25.2037C60.3819 24.7633 61.0751 24.4262 61.8871 24.1926C62.6991 23.9589 63.5609 23.8402 64.4687 23.8402C66.0927 23.8325 67.3337 24.2232 68.1955 25.0007ZM65.8437 32.8029C66.3455 32.5079 66.7017 32.0828 66.9085 31.5351V30.2558H64.2465C62.7604 30.2558 62.0174 30.746 62.0174 31.7227C62.0174 32.19 62.2012 32.5616 62.5766 32.8373C62.9481 33.1131 63.4652 33.251 64.124 33.251C64.7636 33.2472 65.3381 33.0978 65.8437 32.8029Z" fill="#343845"/>
<path d="M79.4141 34.3808C79.1115 34.6298 78.7438 34.8136 78.311 34.94C77.8782 35.0626 77.4185 35.1238 76.9398 35.1238C75.7294 35.1238 74.7949 34.8059 74.1322 34.174C73.4696 33.542 73.1402 32.6189 73.1402 31.4086V26.1037H71.3247V24.0393H73.1402V21.5228H75.7218V24.0393H78.6749V26.1037H75.7218V31.3473C75.7218 31.8835 75.852 32.2933 76.1125 32.5768C76.3729 32.8602 76.7521 32.9981 77.2462 32.9981C77.8246 32.9981 78.3072 32.8487 78.6902 32.5423L79.4141 34.3808Z" fill="#343845"/>
<path d="M92.2147 23.959V34.9823H89.7596V33.5766C89.3459 34.0707 88.8288 34.4537 88.2122 34.7218C87.5917 34.99 86.9252 35.124 86.209 35.124C84.7344 35.124 83.5776 34.7142 82.7312 33.8945C81.8847 33.0749 81.4634 31.8607 81.4634 30.252V23.959H84.0449V29.9034C84.0449 30.8955 84.2671 31.6347 84.7152 32.1211C85.1634 32.6114 85.7992 32.8527 86.6227 32.8527C87.5457 32.8527 88.2773 32.5654 88.8212 31.9947C89.3651 31.424 89.637 30.6005 89.637 29.5281V23.959H92.2147Z" fill="#343845"/>
<path d="M101.978 23.8324V26.2875C101.756 26.2454 101.557 26.2263 101.38 26.2263C100.377 26.2263 99.5916 26.5174 99.0286 27.1034C98.4656 27.6894 98.1821 28.532 98.1821 29.6313V34.9783H95.6006V23.9588H98.0557V25.5675C98.7988 24.4108 100.105 23.8324 101.978 23.8324Z" fill="#343845"/>
<path d="M112.04 25.0009C112.901 25.7784 113.33 26.9504 113.33 28.5208V34.9824H110.894V33.6418C110.577 34.1244 110.128 34.4921 109.542 34.7449C108.956 35.0015 108.252 35.1279 107.428 35.1279C106.605 35.1279 105.881 34.9862 105.26 34.7066C104.64 34.427 104.161 34.0325 103.824 33.5307C103.487 33.029 103.318 32.4621 103.318 31.8263C103.318 30.8343 103.686 30.0414 104.421 29.4439C105.157 28.8464 106.317 28.5476 107.899 28.5476H110.749V28.3829C110.749 27.6131 110.519 27.0194 110.056 26.6096C109.596 26.1959 108.91 25.9891 108.003 25.9891C107.382 25.9891 106.773 26.0848 106.176 26.2763C105.578 26.4678 105.073 26.7359 104.659 27.0807L103.648 25.2039C104.226 24.7634 104.919 24.4263 105.731 24.1927C106.543 23.9591 107.405 23.8403 108.313 23.8403C109.937 23.8327 111.182 24.2233 112.04 25.0009ZM109.688 32.803C110.19 32.5081 110.546 32.0829 110.753 31.5352V30.2559H108.091C106.605 30.2559 105.862 30.7462 105.862 31.7229C105.862 32.1901 106.045 32.5617 106.421 32.8375C106.792 33.1132 107.309 33.2511 107.968 33.2511C108.612 33.2473 109.186 33.0979 109.688 32.803Z" fill="#343845"/>
<path d="M116.632 19.6653H119.213V34.9822H116.632V19.6653Z" fill="#343845"/>
<path d="M141.383 20.5311V34.9825H138.698V28.789H131.225V34.9825H128.54V20.5311H131.225V26.4986H138.698V20.5311H141.383Z" fill="#343845"/>
<path d="M152.954 25.0009C153.816 25.7784 154.245 26.9504 154.245 28.5208V34.9824H151.809V33.6418C151.491 34.1244 151.043 34.4921 150.457 34.7449C149.87 35.0015 149.166 35.1279 148.342 35.1279C147.515 35.1279 146.795 34.9862 146.174 34.7066C145.554 34.427 145.075 34.0325 144.738 33.5307C144.401 33.029 144.232 32.4621 144.232 31.8263C144.232 30.8343 144.6 30.0414 145.336 29.4439C146.071 28.8464 147.231 28.5476 148.813 28.5476H151.663V28.3829C151.663 27.6131 151.433 27.0194 150.97 26.6096C150.51 26.1959 149.825 25.9891 148.917 25.9891C148.296 25.9891 147.687 26.0848 147.09 26.2763C146.492 26.4678 145.987 26.7359 145.573 27.0807L144.562 25.2039C145.14 24.7634 145.833 24.4263 146.645 24.1927C147.457 23.9591 148.319 23.8403 149.227 23.8403C150.851 23.8327 152.092 24.2233 152.954 25.0009ZM150.602 32.803C151.104 32.5081 151.46 32.0829 151.667 31.5352V30.2559H149.005C147.519 30.2559 146.776 30.7462 146.776 31.7229C146.776 32.1901 146.963 32.5617 147.335 32.8375C147.706 33.1132 148.224 33.2511 148.882 33.2511C149.522 33.2473 150.096 33.0979 150.602 32.803Z" fill="#343845"/>
<path d="M157.669 21.6954C157.351 21.4005 157.194 21.0328 157.194 20.5923C157.194 20.1518 157.351 19.7841 157.669 19.4892C157.987 19.1943 158.377 19.0449 158.845 19.0449C159.312 19.0449 159.706 19.1866 160.021 19.4662C160.338 19.7497 160.495 20.1021 160.495 20.531C160.495 20.9868 160.342 21.366 160.032 21.6763C159.722 21.9865 159.327 22.1397 158.845 22.1397C158.377 22.1397 157.987 21.9942 157.669 21.6954ZM157.546 23.9591H160.128V34.9824H157.546V23.9591Z" fill="#343845"/>
<path d="M169.891 23.8326V26.2878C169.669 26.2457 169.47 26.2265 169.293 26.2265C168.29 26.2265 167.505 26.5176 166.942 27.1036C166.379 27.6896 166.095 28.5323 166.095 29.6316V34.9785H163.514V23.959H165.969V25.5677C166.712 24.411 168.018 23.8326 169.891 23.8326Z" fill="#343845"/>
<path d="M180.861 34.2278C179.685 33.5881 178.762 32.7033 178.095 31.5734C177.429 30.4435 177.096 29.1719 177.096 27.7547C177.096 26.3376 177.433 25.0659 178.107 23.936C178.781 22.8061 179.708 21.9252 180.884 21.2817C182.06 20.642 183.377 20.3203 184.837 20.3203C186.02 20.3203 187.1 20.5271 188.077 20.9408C189.054 21.3545 189.881 21.952 190.555 22.7372L188.82 24.3688C187.774 23.2389 186.487 22.6759 184.959 22.6759C183.967 22.6759 183.082 22.8942 182.297 23.327C181.512 23.7598 180.899 24.3612 180.459 25.1349C180.018 25.9047 179.8 26.778 179.8 27.7547C179.8 28.7314 180.018 29.6047 180.459 30.3746C180.899 31.1444 181.512 31.7458 182.297 32.1824C183.082 32.6191 183.971 32.8336 184.959 32.8336C186.487 32.8336 187.774 32.2629 188.82 31.1215L190.555 32.7723C189.881 33.5575 189.05 34.155 188.069 34.5686C187.085 34.9823 186.001 35.1891 184.817 35.1891C183.354 35.1891 182.037 34.8674 180.861 34.2278Z" fill="#343845"/>
<path d="M192.883 19.6653H195.465V34.9822H192.883V19.6653Z" fill="#343845"/>
<path d="M198.973 21.6954C198.656 21.4005 198.499 21.0328 198.499 20.5923C198.499 20.1518 198.656 19.7841 198.973 19.4892C199.291 19.1943 199.682 19.0449 200.149 19.0449C200.617 19.0449 201.011 19.1866 201.325 19.4662C201.643 19.7497 201.8 20.1021 201.8 20.531C201.8 20.9868 201.647 21.366 201.337 21.6763C201.026 21.9865 200.632 22.1397 200.149 22.1397C199.682 22.1397 199.291 21.9942 198.973 21.6954ZM198.851 23.9591H201.432V34.9824H198.851V23.9591Z" fill="#343845"/>
<path d="M214.417 25.0506C215.256 25.8626 215.677 27.0653 215.677 28.6625V34.9785H213.096V28.9957C213.096 28.0343 212.87 27.3066 212.414 26.8163C211.958 26.3299 211.311 26.0848 210.472 26.0848C209.522 26.0848 208.771 26.372 208.22 26.9427C207.668 27.5134 207.393 28.3369 207.393 29.4094V34.9823H204.811V23.959H207.266V25.3838C207.691 24.8744 208.228 24.4876 208.875 24.2271C209.522 23.9667 210.25 23.8365 211.062 23.8365C212.46 23.8326 213.575 24.2386 214.417 25.0506Z" fill="#343845"/>
<path d="M219.082 21.6954C218.764 21.4005 218.607 21.0328 218.607 20.5923C218.607 20.1518 218.764 19.7841 219.082 19.4892C219.4 19.1943 219.791 19.0449 220.258 19.0449C220.726 19.0449 221.12 19.1866 221.434 19.4662C221.752 19.7497 221.909 20.1021 221.909 20.531C221.909 20.9868 221.756 21.366 221.446 21.6763C221.135 21.9865 220.741 22.1397 220.258 22.1397C219.791 22.1397 219.396 21.9942 219.082 21.6954ZM218.956 23.9591H221.538V34.9824H218.956V23.9591Z" fill="#343845"/>
<path d="M226.904 34.404C225.996 33.9214 225.287 33.2511 224.778 32.3931C224.268 31.5313 224.016 30.5585 224.016 29.4707C224.016 28.3829 224.272 27.4139 224.778 26.5597C225.287 25.7056 225.992 25.0392 226.892 24.5565C227.792 24.0739 228.823 23.8326 229.979 23.8326C231.067 23.8326 232.021 24.051 232.837 24.4914C233.656 24.9319 234.273 25.5639 234.683 26.3912L232.702 27.5479C232.385 27.0385 231.99 26.6555 231.515 26.4027C231.04 26.1499 230.519 26.0197 229.956 26.0197C228.995 26.0197 228.194 26.3338 227.562 26.9581C226.93 27.5862 226.612 28.4212 226.612 29.4669C226.612 30.5125 226.927 31.3475 227.551 31.9756C228.175 32.6038 228.98 32.914 229.956 32.914C230.519 32.914 231.04 32.7876 231.515 32.531C231.99 32.2782 232.385 31.8952 232.702 31.3858L234.683 32.5425C234.258 33.3698 233.633 34.0056 232.814 34.4538C231.994 34.9019 231.048 35.1241 229.975 35.1241C228.838 35.1241 227.811 34.8866 226.904 34.404Z" fill="#343845"/>
<path d="M30.2382 33.0825C30.2382 41.5204 23.2289 48.3228 14.7144 47.9896C6.95827 47.6832 0.657603 41.3404 0.40864 33.5804C0.332036 31.2861 0.776339 29.1029 1.63047 27.138L1.63813 27.1189L1.86794 26.6133L1.8756 26.598L13.6075 1.10035C14.2816 -0.366619 16.3614 -0.366619 17.0355 1.10035L20.1993 7.98321C18.1156 12.2041 13.3738 22.0553 11.9758 27.0844C10.1641 33.5919 11.4932 37.5715 16.0741 37.3302C20.6512 37.0889 19.7511 32.0866 18.7246 30.3975C17.6981 28.7122 15.8941 26.7818 16.1929 23.1661C16.4227 20.393 19.6324 13.1884 21.1147 9.97874L28.7176 26.5137L28.9972 27.1189L29.0049 27.138C29.8015 28.9612 30.2382 30.972 30.2382 33.0825Z" fill="url(#paint0_linear)"/>
<defs>
<linearGradient id="paint0_linear" x1="15.3198" y1="-1.78272" x2="15.3198" y2="56.5778" gradientUnits="userSpaceOnUse">
<stop stop-color="#3CCD74"/>
<stop offset="1" stop-color="#29B6F6"/>
</linearGradient>
</defs>
</svg>
