<svg width="31" height="48" viewBox="0 0 31 48" fill="none" xmlns="http://www.w3.org/2000/svg">
<path d="M30.2379 33.0825C30.2379 41.5204 23.2287 48.3228 14.7142 47.9896C6.95803 47.6832 0.657359 41.3404 0.408396 33.5804C0.331792 31.2861 0.776095 29.1029 1.63023 27.138L1.63789 27.1189L1.8677 26.6133L1.87536 26.598L13.6072 1.10035C14.2814 -0.366619 16.3612 -0.366619 17.0353 1.10035L20.199 7.98321C18.1154 12.2041 13.3736 22.0553 11.9756 27.0844C10.1639 33.5919 11.493 37.5715 16.0739 37.3302C20.651 37.0889 19.7509 32.0866 18.7244 30.3975C17.6979 28.7122 15.8939 26.7818 16.1926 23.1661C16.4224 20.393 19.6321 13.1884 21.1144 9.97874L28.7174 26.5137L28.997 27.1189L29.0046 27.138C29.8013 28.9612 30.2379 30.972 30.2379 33.0825Z" fill="url(#paint0_linear)"/>
<defs>
<linearGradient id="paint0_linear" x1="15.3195" y1="-1.78272" x2="15.3195" y2="56.5778" gradientUnits="userSpaceOnUse">
<stop stop-color="#3CCD74"/>
<stop offset="1" stop-color="#29B6F6"/>
</linearGradient>
</defs>
</svg>
