<svg width="32" height="32" viewBox="0 0 32 32" fill="none" xmlns="http://www.w3.org/2000/svg">
<g clip-path="url(#clip0)">
<path d="M16 32C24.8366 32 32 24.8366 32 16C32 7.16344 24.8366 0 16 0C7.16344 0 0 7.16344 0 16C0 24.8366 7.16344 32 16 32Z" fill="white"/>
<path d="M19.2309 7.38464H12.7694C9.796 7.38464 7.38477 9.79587 7.38477 12.7693V19.2308C7.38477 22.2042 9.796 24.6154 12.7694 24.6154H19.2309C22.2043 24.6154 24.6155 22.2042 24.6155 19.2308V12.7693C24.6155 9.79587 22.2043 7.38464 19.2309 7.38464ZM23.0002 19.2308C23.0002 21.3093 21.3094 23 19.2309 23H12.7694C10.6909 23 9.00015 21.3093 9.00015 19.2308V12.7693C9.00015 10.6908 10.6909 9.00003 12.7694 9.00003H19.2309C21.3094 9.00003 23.0002 10.6908 23.0002 12.7693V19.2308Z" fill="#2DB05F"/>
<path d="M16.0001 11.6924C13.6212 11.6924 11.6924 13.6212 11.6924 16.0001C11.6924 18.379 13.6212 20.3078 16.0001 20.3078C18.379 20.3078 20.3078 18.379 20.3078 16.0001C20.3078 13.6212 18.379 11.6924 16.0001 11.6924ZM16.0001 18.6924C14.5161 18.6924 13.3078 17.4841 13.3078 16.0001C13.3078 14.515 14.5161 13.3078 16.0001 13.3078C17.4841 13.3078 18.6924 14.515 18.6924 16.0001C18.6924 17.4841 17.4841 18.6924 16.0001 18.6924Z" fill="#2DB05F"/>
<path d="M20.6306 11.9429C20.9477 11.9429 21.2046 11.6859 21.2046 11.3689C21.2046 11.0519 20.9477 10.7949 20.6306 10.7949C20.3136 10.7949 20.0566 11.0519 20.0566 11.3689C20.0566 11.6859 20.3136 11.9429 20.6306 11.9429Z" fill="#2DB05F"/>
</g>
<defs>
<clipPath id="clip0">
<rect width="32" height="32" fill="white"/>
</clipPath>
</defs>
</svg>
