<svg width="80" height="80" viewBox="0 0 80 80" fill="none" xmlns="http://www.w3.org/2000/svg">
<path d="M63.4046 19.5309L52.9557 4.59073C52.4048 3.80309 51.2384 3.80309 50.6876 4.59073L40.2388 19.5309C33.6867 28.8995 40.3893 41.7662 51.8217 41.7662C63.2541 41.7662 69.9566 28.8995 63.4046 19.5309Z" fill="#3CCD74"/>
<path d="M45.6713 19.5309L54.5379 6.85297L52.9557 4.59073C52.4049 3.80309 51.2384 3.80309 50.6876 4.59073L40.2388 19.5309C33.6867 28.8995 40.3893 41.7662 51.8217 41.7662C52.761 41.7662 53.6674 41.6777 54.538 41.5132C44.8108 39.6742 39.6575 28.1299 45.6713 19.5309Z" fill="#3CCD74"/>
<path d="M58.0475 24.4495H55.1368C54.881 24.4495 54.6736 24.2421 54.6736 23.9864V21.0757C54.6736 20.82 54.4662 20.6127 54.2104 20.6127H49.4326C49.1768 20.6127 48.9694 20.8201 48.9694 21.0757V23.9864C48.9694 24.2422 48.762 24.4495 48.5062 24.4495H45.5955C45.3397 24.4495 45.1323 24.6569 45.1323 24.9126V29.6905C45.1323 29.9463 45.3397 30.1535 45.5955 30.1535H48.5062C48.762 30.1535 48.9694 30.361 48.9694 30.6166V33.5273C48.9694 33.7831 49.1768 33.9904 49.4326 33.9904H54.2104C54.4662 33.9904 54.6736 33.7829 54.6736 33.5273V30.6166C54.6736 30.3608 54.881 30.1535 55.1368 30.1535H58.0475C58.3033 30.1535 58.5106 29.9461 58.5106 29.6905V24.9126C58.5107 24.6569 58.3033 24.4495 58.0475 24.4495Z" fill="white"/>
<path d="M57.5955 54.2904C58.0891 54.3406 58.584 54.2078 58.9888 53.9167L68.073 47.3833C68.5618 47.0317 69.1087 46.8256 69.6641 46.755C69.8107 46.7364 69.918 46.6086 69.9146 46.4609C69.8887 45.3106 69.3728 44.0375 68.4261 43.3606C66.839 42.2257 64.6462 42.6121 63.5285 44.2237L57.1191 53.4657C56.9094 53.7681 56.6254 54.0057 56.2988 54.1586H56.299L57.5955 54.2904Z" fill="#FFBD86"/>
<path d="M68.1118 44.2236C68.2185 44.0696 68.3352 43.927 68.4602 43.7958C68.5808 43.6692 68.5709 43.4644 68.4289 43.3624C68.4279 43.3617 68.4271 43.3611 68.4261 43.3604C66.839 42.2256 64.6462 42.612 63.5285 44.2236L57.1191 53.4656C56.9094 53.768 56.6254 54.0056 56.2988 54.1585H56.299L57.5957 54.2902C58.0893 54.3405 58.5841 54.2077 58.989 53.9165L63.7382 50.5008C63.7649 50.4816 63.7882 50.4579 63.807 50.4308L68.1118 44.2236Z" fill="#F6A96C"/>
<path d="M73.0449 48.2254C71.9472 46.5614 69.6917 46.1473 68.0728 47.2879L59.0767 53.6262C58.6151 53.9514 58.0516 54.0996 57.4896 54.0437L52.769 53.5736C52.3151 53.5284 52.1526 52.9372 52.5288 52.6792C53.4083 52.0758 54.0339 51.1147 54.1727 49.9755C54.424 47.9135 52.9846 46.0255 50.9208 45.7099L35.3023 43.3218C33.5358 43.0517 31.733 43.4751 30.2746 44.5028L21.984 50.344C21.8529 50.4362 21.822 50.6175 21.915 50.7481L31.1791 63.7586C31.2651 63.8794 31.4278 63.9143 31.5569 63.841C34.9107 61.9377 38.7242 60.9471 42.6106 60.9945L56.6843 61.1659C59.1004 61.226 61.4714 60.5077 63.4437 59.118L72.0671 53.0424C73.6226 51.9468 74.0906 49.8106 73.0449 48.2254Z" fill="#FED2A4"/>
<path d="M28.9486 48.647L34.8303 44.503C35.1388 44.2856 35.4628 44.0959 35.7986 43.9339C36.0567 43.8095 36.0041 43.4295 35.721 43.3862L35.3023 43.3222C33.5358 43.0521 31.733 43.4755 30.2746 44.5032L21.984 50.3443C21.8529 50.4366 21.822 50.6178 21.915 50.7485L31.1791 63.759C31.2651 63.8798 31.428 63.9147 31.5571 63.8414C32.47 63.3235 33.4173 62.8739 34.3905 62.4938C34.5666 62.425 34.6325 62.2108 34.5229 62.0569L28.18 53.149C27.1444 51.6943 27.4891 49.6752 28.9486 48.647Z" fill="#FFBD86"/>
<path d="M51.3303 53.4338C51.4705 53.4463 51.6132 53.3638 51.6446 53.2265C51.6581 53.167 51.6986 53.1129 51.7692 53.0848C52.5901 52.7575 53.2803 52.1551 53.7139 51.3793C53.6468 51.3606 53.5775 51.3469 53.5058 51.3404L43.0079 50.4054C42.3781 50.3493 41.8218 50.8118 41.7654 51.4383C41.709 52.0649 42.1739 52.6182 42.8036 52.6743L51.3303 53.4338Z" fill="#FFBD86"/>
<path d="M15.4907 51.2073C15.3984 51.0769 15.2179 51.0461 15.0875 51.1384L7.09549 56.7991C6.36045 57.3198 6.17299 58.3186 6.67685 59.03L18.2336 75.3463C18.7374 76.0578 19.7419 76.2124 20.477 75.6917L28.469 70.031C28.5994 69.9387 28.6301 69.7582 28.5378 69.6278L15.4907 51.2073Z" fill="#3CCD74"/>
<path d="M11.5558 59.0301C11.052 58.3187 11.2394 57.32 11.9745 56.7993L16.7663 53.5165C16.8995 53.4252 16.9322 53.2426 16.8389 53.1108L15.4907 51.2073C15.3984 51.0769 15.2179 51.0461 15.0875 51.1384L7.09549 56.7991C6.36045 57.3198 6.17299 58.3186 6.67685 59.03L18.2336 75.3463C18.7374 76.0578 19.7419 76.2124 20.477 75.6917L22.159 74.5003C22.2894 74.4081 22.3202 74.2275 22.2278 74.0972L11.5558 59.0301Z" fill="#3CCD74"/>
<path d="M28.3949 69.7293C28.4872 69.8597 28.6677 69.8905 28.7981 69.7981L32.0764 67.4761C32.7971 66.9656 32.9729 65.9751 32.4689 65.2638L20.9121 48.9475C20.4083 48.236 19.4156 48.0731 18.6949 48.5835L15.4165 50.9055C15.2861 50.9978 15.2553 51.1783 15.3477 51.3087L28.3949 69.7293Z" fill="#D9EDFF"/>
<path d="M21.4943 50.2775C21.6275 50.1862 21.6602 50.0035 21.5669 49.8717L20.9121 48.9473C20.4083 48.2359 19.4156 48.073 18.6949 48.5833L15.4165 50.9055C15.2861 50.9977 15.2553 51.1783 15.3477 51.3087L16.6996 53.2174C16.7908 53.3463 16.9687 53.3781 17.0989 53.2888L21.4943 50.2775Z" fill="#B4DBFF"/>
</svg>
