<svg width="72" height="72" viewBox="0 0 72 72" fill="none" xmlns="http://www.w3.org/2000/svg">
<path d="M71.3595 12.766C72.2372 15.099 72.2274 17.6918 71.2429 19.9817C70.4351 21.8606 68.8992 23.7603 66.0129 24.7973C56.5455 28.1984 56.582 9.11972 56.582 9.11972L71.1352 12.1697L71.3595 12.766Z" fill="#90E2AF"/>
<path d="M1.08619 60.4544C0.208409 58.1214 0.218252 55.5286 1.20277 53.2387C2.01052 51.3598 3.54642 49.4601 6.43275 48.4231C15.9002 45.0219 15.8636 64.1007 15.8636 64.1007L1.31049 61.0507L1.08619 60.4544Z" fill="#90E2AF"/>
<path d="M35.9086 71.9082C55.7403 71.9082 71.8172 55.8314 71.8172 35.9996C71.8172 16.1679 55.7403 0.0910339 35.9086 0.0910339C16.0768 0.0910339 0 16.1679 0 35.9996C0 55.8314 16.0768 71.9082 35.9086 71.9082Z" fill="#3CCD74"/>
<path d="M71.7961 37.2091C71.8094 36.8075 71.8186 36.4049 71.8186 36C71.8186 35.5951 71.8094 35.1925 71.7961 34.7909H54.6707C54.5905 29.7248 54.0073 24.8309 52.9676 20.35C57.7108 19.7796 62.2544 18.9727 66.4787 17.9358C66.6156 17.9021 66.7403 17.8455 66.8518 17.7725C66.4302 17.0583 65.9849 16.3599 65.5163 15.6786C61.4004 16.6704 56.9811 17.4434 52.3662 17.9869C51.5725 15.1283 50.5839 12.4685 49.4142 10.0771C47.2119 5.5744 44.5175 2.33384 41.5452 0.532291C39.7088 0.242744 37.8267 0.0907288 35.909 0.0907288C33.9913 0.0907288 32.1092 0.242744 30.2727 0.532291C27.3005 2.33398 24.606 5.57454 22.4038 10.0771C21.2341 12.4685 20.2455 15.1283 19.4518 17.9869C14.8371 17.4434 10.4179 16.6703 6.30182 15.6784C5.83059 16.3636 5.38298 17.066 4.95928 17.7843C5.0625 17.8473 5.17683 17.8958 5.30044 17.9262C9.5362 18.9678 14.093 19.7778 18.8506 20.35C17.811 24.8309 17.2278 29.7248 17.1475 34.7909H0.0225C0.00914062 35.1925 0 35.5951 0 36C0 36.4049 0.00914062 36.8075 0.0225 37.2091H17.1478C17.2423 43.1712 18.0339 48.8942 19.4451 53.9868C15.0051 54.5001 10.7336 55.2192 6.7379 56.1382C6.57857 56.1749 6.43401 56.2418 6.30857 56.331C6.78979 57.0303 7.29506 57.7119 7.82339 58.3743C11.708 57.5042 15.8505 56.8229 20.1558 56.3397C20.807 58.3235 21.5582 60.1936 22.4041 61.923C24.6064 66.4256 27.3008 69.6662 30.273 71.4677C32.1095 71.7573 33.9914 71.9093 35.9093 71.9093C37.827 71.9093 39.7091 71.7573 41.5455 71.4677C44.5178 69.666 47.2121 66.4256 49.4145 61.923C50.2603 60.1934 51.0116 58.3235 51.6628 56.3397C55.968 56.8228 60.1105 57.5042 63.995 58.3743C64.5234 57.7119 65.0285 57.0305 65.5098 56.3311C65.3843 56.2418 65.2397 56.1748 65.0802 56.1381C61.0847 55.2192 56.8135 54.5001 52.3736 53.9868C53.7848 48.8942 54.5764 43.1712 54.6709 37.2091H71.7961ZM34.7002 70.6027C30.9379 69.9999 27.3808 66.5945 24.5762 60.8604C23.8491 59.374 23.1962 57.7754 22.6195 56.0846C26.5535 55.7173 30.6039 55.5147 34.7002 55.4811V70.6027ZM34.7002 53.0632C30.3518 53.0983 26.053 53.3228 21.8832 53.7279C20.4621 48.7527 19.6623 43.111 19.566 37.2091H34.7002V53.0632ZM34.7002 34.7909H19.566C19.6474 29.7987 20.2321 24.9929 21.2706 20.6189C25.6257 21.0618 30.1297 21.306 34.7002 21.3427V34.7909ZM34.7002 18.9246C30.3414 18.889 26.0456 18.6635 21.8888 18.2526C22.6233 15.6853 23.5221 13.2948 24.5762 11.1395C27.3808 5.40523 30.9379 1.99999 34.7002 1.39713V18.9246ZM37.1182 1.39728C40.8805 2.00013 44.4376 5.40551 47.2422 11.1396C48.2964 13.2948 49.1952 15.6853 49.9296 18.2526C45.7727 18.6635 41.4769 18.8892 37.1182 18.9248V1.39728ZM47.2422 60.8604C44.4376 66.5947 40.8805 69.9999 37.1182 70.6027V55.4811C41.2145 55.5147 45.2649 55.7173 49.1989 56.0846C48.6223 57.7754 47.9693 59.374 47.2422 60.8604ZM49.9352 53.7279C45.7654 53.3228 41.4666 53.0983 37.1182 53.0632V37.2091H52.2524C52.1562 43.111 51.3564 48.7527 49.9352 53.7279ZM37.1182 34.7909V21.3427C41.6885 21.306 46.1926 21.0618 50.5478 20.6189C51.5861 24.9929 52.171 29.7989 52.2524 34.7911H37.1182V34.7909Z" fill="#2DB05F"/>
<path d="M35.9097 0.0907288C34.3973 0.0907288 32.9072 0.185369 31.4438 0.366916C49.1684 2.56587 62.8873 17.6802 62.8873 36C62.8873 54.3198 49.1684 69.4342 31.4438 71.6331C32.9071 71.8147 34.3973 71.9093 35.9097 71.9093C55.7417 71.9093 71.819 55.8322 71.819 36C71.819 16.1678 55.7417 0.0907288 35.9097 0.0907288Z" fill="#2DB05F"/>
<path d="M65.0802 56.1379C62.69 55.5882 60.1995 55.1117 57.635 54.7062C57.1705 55.4658 56.6776 56.2059 56.1597 56.9267C58.8618 57.329 61.483 57.8114 63.9951 58.374C64.1209 58.2164 64.245 58.0576 64.3681 57.8979C64.3833 57.8783 64.3982 57.8585 64.4132 57.8389C64.7914 57.3462 65.1571 56.8435 65.5098 56.3309C65.3844 56.2417 65.2398 56.1746 65.0802 56.1379Z" fill="#248D4C"/>
<path d="M71.7958 34.7909H62.8643C62.8775 35.1925 62.8866 35.5951 62.8866 36C62.8866 36.4048 62.8775 36.8075 62.8643 37.2091H71.7958C71.8013 37.0415 71.8055 36.8737 71.8093 36.7056C71.8138 36.4708 71.8181 36.236 71.8181 36.0001C71.8181 35.7643 71.8138 35.5293 71.8093 35.2946C71.8055 35.1264 71.8013 34.9585 71.7958 34.7909Z" fill="#248D4C"/>
<path d="M35.0529 0.101991C34.9003 0.105647 34.748 0.110006 34.596 0.115491C34.5213 0.118163 34.4466 0.121116 34.3721 0.124209C34.2154 0.130819 34.0591 0.138694 33.9028 0.147413C33.8418 0.150788 33.7806 0.153741 33.7196 0.157397C33.5049 0.170334 33.2907 0.184959 33.0769 0.201834C33.0442 0.204366 33.0117 0.2076 32.9789 0.210272C32.7947 0.225178 32.6108 0.241491 32.4273 0.259209C32.3664 0.265116 32.3058 0.271444 32.245 0.277631C32.0809 0.294366 31.9172 0.311944 31.7538 0.330928C31.7008 0.337116 31.6476 0.343022 31.5948 0.349491C31.5464 0.355256 31.4984 0.362006 31.4502 0.368053C33.3919 0.609366 35.2855 1.00565 37.1182 1.54424V1.39729C38.2716 1.58207 39.4056 2.03151 40.5048 2.72957C42.9243 3.71422 45.2127 4.95397 47.3355 6.41732C45.593 3.78383 43.6383 1.80088 41.5455 0.532303H41.5454C41.3631 0.503616 41.1802 0.477319 40.9971 0.451303C40.9181 0.440053 40.8392 0.428803 40.76 0.418116C40.589 0.395053 40.4177 0.372975 40.246 0.352303C40.1497 0.340772 40.0531 0.330084 39.9566 0.319256C39.7942 0.300975 39.6318 0.282413 39.4686 0.266381C39.2301 0.242897 38.9912 0.221522 38.7513 0.202678C38.6344 0.193538 38.5169 0.186506 38.3997 0.17835C38.2362 0.1671 38.0725 0.156272 37.9083 0.147272C37.7962 0.141084 37.684 0.135741 37.5715 0.130678C37.3898 0.122381 37.2077 0.115491 37.0253 0.109866C36.9312 0.106913 36.8373 0.103678 36.743 0.101428C36.4657 0.0951001 36.1879 0.0908813 35.9091 0.0908813C35.6907 0.0908813 35.4731 0.0934126 35.2556 0.0973501C35.188 0.0984751 35.1205 0.100444 35.0529 0.101991Z" fill="#248D4C"/>
<path d="M58.8758 19.4957C61.5 19.0521 64.0437 18.5334 66.4788 17.9358C66.6156 17.9022 66.7403 17.8455 66.8519 17.7725C66.537 17.2393 66.2089 16.7147 65.8678 16.1996C65.8655 16.1962 65.8634 16.1929 65.8612 16.1896C65.7477 16.0184 65.6328 15.8481 65.5163 15.6787C62.9879 16.2881 60.3442 16.8139 57.6118 17.2556C58.0593 17.9851 58.4802 18.7328 58.8758 19.4957Z" fill="#248D4C"/>
<path d="M37.0253 71.8903C37.2077 71.8847 37.3898 71.8778 37.5715 71.8695C37.6838 71.8643 37.7962 71.8591 37.9083 71.8529C38.0725 71.8439 38.2362 71.8329 38.3997 71.8218C38.5169 71.8138 38.6344 71.8068 38.7513 71.7975C38.9911 71.7787 39.2301 71.7573 39.4686 71.7338C39.6318 71.7176 39.7942 71.6992 39.9566 71.6809C40.0532 71.6701 40.1498 71.6594 40.2461 71.6479C40.4176 71.6272 40.5887 71.6053 40.7594 71.5821C40.8392 71.5712 40.9188 71.56 40.9982 71.5486C41.1807 71.5227 41.3633 71.4964 41.5448 71.4677C41.5451 71.4677 41.5454 71.4676 41.5455 71.4676C43.6383 70.199 45.593 68.2162 47.3355 65.5826C45.2127 67.0461 42.9243 68.2857 40.5048 69.2703C39.4056 69.9684 38.2716 70.4178 37.1182 70.6026V70.4558C35.2855 70.9943 33.3918 71.3907 31.4502 71.632C31.4984 71.638 31.5464 71.6446 31.5948 71.6506C31.6478 71.6569 31.7009 71.6629 31.7541 71.6691C31.9171 71.688 32.0805 71.7055 32.2442 71.7223C32.3055 71.7285 32.3668 71.7349 32.4281 71.7408C32.6112 71.7585 32.7949 71.7747 32.9788 71.7898C33.0116 71.7924 33.0442 71.7955 33.0771 71.7982C33.2907 71.8149 33.505 71.8296 33.7197 71.8426C33.7808 71.8463 33.8419 71.8493 33.903 71.8526C34.0591 71.8613 34.2154 71.8691 34.3722 71.8758C34.4468 71.8791 34.5214 71.8819 34.5961 71.8845C34.7481 71.89 34.9004 71.8945 35.053 71.898C35.1206 71.8996 35.1881 71.9016 35.2558 71.9028C35.4732 71.9068 35.691 71.9093 35.9093 71.9093C36.1881 71.9093 36.466 71.9051 36.7432 71.8988C36.8373 71.8965 36.9312 71.8933 37.0253 71.8903Z" fill="#248D4C"/>
<path d="M36.9041 47.3349L43.5718 49.7969C43.7802 49.8738 43.8299 50.1481 43.6607 50.292C31.5543 60.585 15.7081 63.7604 0.578125 58.6284C0.684297 59.2376 0.846578 59.8393 1.06623 60.4249L1.29011 61.0213C4.52069 68.5756 12.6887 72.6824 20.7001 70.8597C31.318 68.4439 41.0951 62.83 48.2951 55.0268C48.4418 54.8679 48.7034 54.9173 48.7804 55.1194L51.4943 62.2413C51.5957 62.5072 51.9792 62.4843 52.0483 62.2083L57.1476 41.8088C57.2013 41.5936 57.0043 41.4 56.7901 41.4574L36.9294 46.7812C36.6556 46.8546 36.638 47.2366 36.9041 47.3349Z" fill="#C7F1D7"/>
<path d="M35.5415 25.8854L28.8738 23.4235C28.6654 23.3465 28.6157 23.0722 28.7849 22.9283C40.8913 12.6353 56.7375 9.45997 71.8675 14.5919C71.7613 13.9829 71.599 13.381 71.3794 12.7955L71.1555 12.1991C67.9249 4.64469 59.7569 0.537884 51.7455 2.36066C41.1276 4.77646 31.3505 10.3903 24.1505 18.1933C24.0038 18.3523 23.7423 18.3029 23.6652 18.1008L20.9513 10.979C20.8499 10.7131 20.4664 10.7359 20.3973 11.0121L15.298 31.4115C15.2443 31.6267 15.4413 31.8203 15.6555 31.7629L35.5162 26.4392C35.79 26.3656 35.8076 25.9835 35.5415 25.8854Z" fill="#C7F1D7"/>
</svg>
