<svg width="32" height="32" viewBox="0 0 32 32" fill="none" xmlns="http://www.w3.org/2000/svg">
<g clip-path="url(#clip0)">
<path d="M16 32.0001C24.8366 32.0001 32 24.8367 32 16.0001C32 7.16357 24.8366 0.00012207 16 0.00012207C7.16344 0.00012207 0 7.16357 0 16.0001C0 24.8367 7.16344 32.0001 16 32.0001Z" fill="white"/>
<path d="M20.022 16.6263H17.167V27.0858H12.8414V16.6263H10.7842V12.9505H12.8414V10.5718C12.8414 8.87078 13.6495 6.20715 17.2055 6.20715L20.4096 6.22056V9.7886H18.0848C17.7035 9.7886 17.1673 9.97912 17.1673 10.7906V12.9539H20.3999L20.022 16.6263Z" fill="#2DB05F"/>
</g>
<defs>
<clipPath id="clip0">
<rect width="32" height="32" fill="white" transform="translate(0 0.00012207)"/>
</clipPath>
</defs>
</svg>
