<svg width="80" height="80" viewBox="0 0 80 80" fill="none" xmlns="http://www.w3.org/2000/svg">
<path d="M51.1673 24.6078C50.7117 25.024 49.9884 24.9144 49.6764 24.3821L45.7345 17.6567C45.5134 17.2796 45.5719 16.8011 45.8774 16.4884L47.133 15.2028C47.4716 14.8562 47.5024 14.3128 47.2052 13.9302L43.6738 9.3819C43.3306 8.94 42.663 8.94 42.3198 9.3819L38.7884 13.9302C38.4912 14.3128 38.522 14.8562 38.8606 15.2028L40.1162 16.4884C40.4216 16.8011 40.4801 17.2795 40.2591 17.6567L36.3174 24.3821C36.0053 24.9144 35.2821 25.024 34.8264 24.6078L26.2394 16.7662C25.6513 16.2293 24.7574 16.909 25.1177 17.6191L33.0893 33.3342H49.7413L54.9754 23.0159C55.2527 22.4693 54.8833 21.8166 54.2719 21.7731L51.1673 24.6078Z" fill="#74DB9C"/>
<path d="M59.7541 16.7663L54.2713 21.7731L48.4067 33.3343H52.9041L60.8757 17.6192C61.236 16.909 60.3421 16.2294 59.7541 16.7663Z" fill="#58D488"/>
<path d="M60.1995 19.7328C61.7162 19.7328 62.9458 18.5032 62.9458 16.9865C62.9458 15.4697 61.7162 14.2401 60.1995 14.2401C58.6827 14.2401 57.4531 15.4697 57.4531 16.9865C57.4531 18.5032 58.6827 19.7328 60.1995 19.7328Z" fill="#2DB05F"/>
<path d="M25.7937 19.7328C27.3105 19.7328 28.5401 18.5032 28.5401 16.9865C28.5401 15.4697 27.3105 14.2401 25.7937 14.2401C24.2769 14.2401 23.0474 15.4697 23.0474 16.9865C23.0474 18.5032 24.2769 19.7328 25.7937 19.7328Z" fill="#2DB05F"/>
<path d="M52.1572 36.4104V35.0065C52.1572 33.7898 51.1709 32.8035 49.9543 32.8034H32.8027C31.586 32.8034 30.5996 33.7898 30.5996 35.0065C30.5996 36.2232 31.586 37.2095 32.8027 37.2095H50.8232C50.8234 37.2095 52.1572 36.4104 52.1572 36.4104Z" fill="#3CCD74"/>
<path d="M53.1907 32.8034H48.6206C49.8373 32.8034 50.8237 33.7897 50.8237 35.0065V37.2095H53.1908C54.4074 37.2095 55.3938 36.2232 55.3938 35.0065C55.3937 33.7897 54.4073 32.8034 53.1907 32.8034Z" fill="#2DB05F"/>
<path d="M20.8997 23.7226H20.0299V22.8529C20.0299 22.4017 19.6642 22.0361 19.2132 22.0361C18.7621 22.0361 18.3964 22.4017 18.3964 22.8529V23.7226H17.5267C17.0757 23.7226 16.71 24.0882 16.71 24.5393C16.71 24.9905 17.0757 25.3561 17.5267 25.3561H18.3964V26.2259C18.3964 26.677 18.7621 27.0426 19.2132 27.0426C19.6642 27.0426 20.0299 26.677 20.0299 26.2259V25.3561H20.8997C21.3507 25.3561 21.7165 24.9905 21.7165 24.5393C21.7165 24.0882 21.3507 23.7226 20.8997 23.7226Z" fill="#3CCD74"/>
<path d="M64.632 30.3648H63.7623V29.4951C63.7623 29.0439 63.3966 28.6783 62.9456 28.6783C62.4946 28.6783 62.1288 29.0439 62.1288 29.4951V30.3648H61.2591C60.8081 30.3648 60.4424 30.7304 60.4424 31.1815C60.4424 31.6327 60.8081 31.9983 61.2591 31.9983H62.1288V32.868C62.1288 33.3191 62.4946 33.6847 62.9456 33.6847C63.3966 33.6847 63.7623 33.3191 63.7623 32.868V31.9983H64.632C65.0831 31.9983 65.4488 31.6327 65.4488 31.1815C65.4488 30.7304 65.0831 30.3648 64.632 30.3648Z" fill="#3CCD74"/>
<path d="M53.9437 6.68647H53.0738V5.81673C53.0738 5.3656 52.7081 5 52.2571 5C51.8061 5 51.4404 5.3656 51.4404 5.81673V6.68647H50.5706C50.1196 6.68647 49.7539 7.05207 49.7539 7.50319C49.7539 7.95432 50.1196 8.31992 50.5706 8.31992H51.4404V9.18977C51.4404 9.64089 51.8061 10.0065 52.2571 10.0065C52.7081 10.0065 53.0738 9.64089 53.0738 9.18977V8.31992H53.9437C54.3947 8.31992 54.7604 7.95432 54.7604 7.50319C54.7604 7.05207 54.3948 6.68647 53.9437 6.68647Z" fill="#3CCD74"/>
<path d="M57.2015 53.5811C57.6951 53.6313 58.1899 53.4986 58.5948 53.2075L67.6789 46.674C68.1677 46.3225 68.7146 46.1163 69.2701 46.0457C69.4166 46.0272 69.5239 45.8993 69.5205 45.7517C69.4947 44.6014 68.9787 43.3283 68.032 42.6513C66.4449 41.5165 64.2522 41.9029 63.1345 43.5145L56.725 52.7565C56.5154 53.0589 56.2313 53.2965 55.9048 53.4494H55.9049L57.2015 53.5811Z" fill="#FFBD86"/>
<path d="M67.7177 43.5144C67.8245 43.3604 67.9412 43.2178 68.0662 43.0866C68.1867 42.96 68.1769 42.7551 68.0348 42.6532C68.0339 42.6525 68.033 42.6519 68.032 42.6512C66.4449 41.5164 64.2522 41.9028 63.1345 43.5144L56.725 52.7564C56.5154 53.0587 56.2313 53.2964 55.9048 53.4493H55.9049L57.2016 53.581C57.6952 53.6312 58.1901 53.4985 58.5949 53.2072L63.3441 49.7916C63.3709 49.7723 63.3942 49.7487 63.4129 49.7216L67.7177 43.5144Z" fill="#F6A96C"/>
<path d="M72.6509 47.5162C71.5531 45.8522 69.2977 45.4381 67.6788 46.5787L58.6827 52.9169C58.221 53.2422 57.6575 53.3904 57.0956 53.3344L52.375 52.8643C51.921 52.8192 51.7586 52.228 52.1348 51.97C53.0142 51.3665 53.6399 50.4055 53.7787 49.2663C54.03 47.2043 52.5905 45.3163 50.5267 45.0007L34.9083 42.6126C33.1418 42.3425 31.339 42.7659 29.8805 43.7936L21.59 49.6347C21.4589 49.727 21.428 49.9082 21.5209 50.0389L30.785 63.0494C30.8711 63.1702 31.0338 63.2051 31.1629 63.1318C34.5167 61.2284 38.3301 60.2379 42.2166 60.2853L56.2902 60.4567C58.7063 60.5167 61.0774 59.7984 63.0497 58.4088L71.6731 52.3332C73.2285 51.2376 73.6966 49.1013 72.6509 47.5162Z" fill="#FED2A4"/>
<path d="M28.5546 47.9378L34.4362 43.7938C34.7448 43.5764 35.0688 43.3867 35.4046 43.2247C35.6626 43.1002 35.61 42.7203 35.3269 42.677L34.9083 42.613C33.1418 42.3428 31.339 42.7663 29.8805 43.7939L21.59 49.6351C21.4589 49.7273 21.428 49.9086 21.5209 50.0393L30.785 63.0498C30.8711 63.1706 31.0339 63.2054 31.163 63.1322C32.076 62.6142 33.0232 62.1647 33.9965 61.7846C34.1726 61.7158 34.2385 61.5016 34.1288 61.3476L27.7859 52.4397C26.7504 50.9851 27.095 48.966 28.5546 47.9378Z" fill="#FFBD86"/>
<path d="M50.9362 52.7246C51.0764 52.7371 51.2192 52.6545 51.2505 52.5173C51.264 52.4578 51.3045 52.4037 51.3751 52.3755C52.1961 52.0483 52.8863 51.4459 53.3198 50.67C53.2528 50.6513 53.1834 50.6377 53.1117 50.6312L42.6139 49.6962C41.984 49.6401 41.4277 50.1026 41.3713 50.7291C41.3149 51.3557 41.7798 51.9089 42.4096 51.965L50.9362 52.7246Z" fill="#FFBD86"/>
<path d="M15.0966 50.4981C15.0044 50.3677 14.8238 50.3369 14.6935 50.4292L6.70145 56.0899C5.9664 56.6106 5.77895 57.6093 6.28281 58.3208L17.8395 74.6371C18.3434 75.3485 19.3479 75.5032 20.0829 74.9825L28.0749 69.3217C28.2053 69.2295 28.2361 69.0489 28.1437 68.9186L15.0966 50.4981Z" fill="#3CCD74"/>
<path d="M11.1618 58.3209C10.6579 57.6095 10.8454 56.6108 11.5804 56.09L16.3723 52.8073C16.5054 52.716 16.5382 52.5333 16.4448 52.4016L15.0966 50.4981C15.0044 50.3677 14.8238 50.3369 14.6935 50.4292L6.70145 56.0899C5.9664 56.6106 5.77895 57.6093 6.28281 58.3208L17.8395 74.6371C18.3434 75.3485 19.3479 75.5032 20.0829 74.9825L21.765 73.7911C21.8953 73.6988 21.9261 73.5183 21.8337 73.3879L11.1618 58.3209Z" fill="#3CCD74"/>
<path d="M28.0009 69.0201C28.0931 69.1505 28.2737 69.1813 28.4041 69.0889L31.6823 66.7669C32.403 66.2564 32.5788 65.2658 32.0748 64.5546L20.5181 48.2382C20.0142 47.5268 19.0215 47.3638 18.3008 47.8743L15.0224 50.1963C14.8921 50.2885 14.8613 50.4691 14.9537 50.5995L28.0009 69.0201Z" fill="#D9EDFF"/>
<path d="M21.1003 49.5682C21.2334 49.477 21.2662 49.2943 21.1728 49.1625L20.5181 48.238C20.0142 47.5266 19.0215 47.3638 18.3008 47.8741L15.0224 50.1963C14.8921 50.2885 14.8613 50.4691 14.9537 50.5994L16.3055 52.5081C16.3968 52.6371 16.5747 52.6689 16.7049 52.5796L21.1003 49.5682Z" fill="#B4DBFF"/>
</svg>
