<svg width="100" height="80" viewBox="0 0 100 80" fill="none" xmlns="http://www.w3.org/2000/svg">
<path d="M0 40H38C39.1046 40 40 40.8954 40 42V78C40 79.1046 39.1046 80 38 80H2C0.895431 80 0 79.1046 0 78V40Z" fill="#3CCD74"/>
<path fill-rule="evenodd" clip-rule="evenodd" d="M40 11.6C40 12.7046 39.1033 13.5921 38.0019 13.6757C35.2192 13.8869 32.4832 14.5384 29.8972 15.6096C26.6942 16.9363 23.7838 18.8809 21.3324 21.3324C18.8809 23.7838 16.9363 26.6942 15.6096 29.8972C14.2829 33.1002 13.6 36.5331 13.6 40L0 40C0 35.9227 0.623351 31.8764 1.84243 28C2.19392 26.8823 2.59494 25.7788 3.04482 24.6927C5.05501 19.8396 8.00138 15.4301 11.7157 11.7157C15.4301 8.00139 19.8396 5.05501 24.6927 3.04482C25.7788 2.59494 26.8823 2.19392 28 1.84243C31.2419 0.822908 34.6026 0.220041 38.0008 0.0499886C39.104 -0.00521629 40 0.89543 40 2V11.6Z" fill="#3CCD74"/>
<path d="M60 40H98C99.1046 40 100 40.8954 100 42V78C100 79.1046 99.1046 80 98 80H62C60.8954 80 60 79.1046 60 78V40Z" fill="#3CCD74"/>
<path fill-rule="evenodd" clip-rule="evenodd" d="M100 11.6C100 12.7046 99.1033 13.5921 98.0019 13.6757C95.2192 13.8869 92.4832 14.5384 89.8972 15.6096C86.6942 16.9363 83.7838 18.8809 81.3324 21.3324C78.8809 23.7838 76.9363 26.6942 75.6096 29.8972C74.2829 33.1002 73.6 36.5331 73.6 40L60 40C60 35.9227 60.6234 31.8764 61.8424 28C62.1939 26.8823 62.5949 25.7788 63.0448 24.6927C65.055 19.8396 68.0014 15.4301 71.7157 11.7157C75.4301 8.00139 79.8396 5.05501 84.6927 3.04482C85.7788 2.59494 86.8823 2.19392 88 1.84243C91.2419 0.822908 94.6026 0.220041 98.0008 0.0499886C99.104 -0.00521629 100 0.89543 100 2V11.6Z" fill="#3CCD74"/>
</svg>
