<svg width="64" height="72" viewBox="0 0 64 72" fill="none" xmlns="http://www.w3.org/2000/svg">
<path d="M48.5022 72H5.74484C2.97762 72 0.734375 69.7568 0.734375 66.9895V8.73999C0.734375 5.97277 2.97762 3.72952 5.74484 3.72952H48.5022C51.2694 3.72952 53.5126 5.97277 53.5126 8.73999V66.9895C53.5126 69.7568 51.2694 72 48.5022 72Z" fill="#3CCD74"/>
<path d="M48.5023 3.72952H46.1245V72H48.5023C51.2696 72 53.5128 69.7568 53.5128 66.9895V8.73999C53.5128 5.97277 51.2696 3.72952 48.5023 3.72952Z" fill="#2DB05F"/>
<path d="M48.497 3.72952H5.74268V65.1954C5.74268 66.4531 6.76671 67.4703 8.02432 67.4619L46.2455 67.2174C47.4914 67.2091 48.497 66.1967 48.497 64.9509V3.72952Z" fill="#E3F8EB"/>
<path d="M41.1328 3.72952V67.2501L46.2455 67.2174C47.4915 67.2091 48.4971 66.1967 48.4971 64.9509V3.72952H41.1328Z" fill="#E3F8EB"/>
<path d="M34.7215 7.61878H19.5256C18.1916 7.61878 17.1104 6.53737 17.1104 5.20355V2.41523C17.1102 1.08141 18.1916 0 19.5256 0H34.7215C36.0555 0 37.1368 1.08141 37.1368 2.41523V5.20341C37.1368 6.53737 36.0554 7.61878 34.7215 7.61878Z" fill="#696874"/>
<path d="M34.7213 0H29.7725V7.61878H34.7213C36.0553 7.61878 37.1366 6.53737 37.1366 5.20355V2.41523C37.1366 1.08141 36.0553 0 34.7213 0Z" fill="#343845"/>
<path d="M28.0044 50.313C35.9108 50.313 42.3203 43.9035 42.3203 35.9971C42.3203 28.0906 35.9108 21.6812 28.0044 21.6812C20.0979 21.6812 13.6885 28.0906 13.6885 35.9971C13.6885 43.9035 20.0979 50.313 28.0044 50.313Z" fill="#3CCD74"/>
<path d="M38.1273 25.8741C34.3868 22.1337 29.092 20.8997 24.3223 22.1645C26.6815 22.7901 28.9128 24.0239 30.763 25.8741C36.3537 31.4648 36.3537 40.5292 30.763 46.1199C28.9128 47.9701 26.6814 49.204 24.3223 49.8296C29.092 51.0944 34.3867 49.8606 38.1273 46.1199C43.718 40.5292 43.718 31.4648 38.1273 25.8741Z" fill="#2DB05F"/>
<path d="M35.7655 33.5586H30.443V28.2361C30.443 27.4783 29.8286 26.8639 29.0708 26.8639H26.938C26.1802 26.8639 25.5658 27.4783 25.5658 28.2361V33.5586H20.2433C19.4855 33.5586 18.8711 34.173 18.8711 34.9308V37.0635C18.8711 37.8214 19.4855 38.4358 20.2433 38.4358H25.5658V43.7583C25.5658 44.5161 26.1802 45.1305 26.938 45.1305H29.0708C29.8286 45.1305 30.443 44.5161 30.443 43.7583V38.4356H35.7655C36.5233 38.4356 37.1377 37.8212 37.1377 37.0634V34.9307C37.1376 34.1728 36.5233 33.5586 35.7655 33.5586Z" fill="white"/>
<path d="M42.7942 64.7307L37.7453 71.562C37.0591 72.4905 35.5924 71.8204 35.8448 70.6939L37.7026 62.405C37.7912 62.01 37.9206 61.6253 38.0887 61.257L57.7681 18.174C58.2164 17.1924 59.3756 16.7603 60.357 17.2086L62.1228 18.0152C63.1044 18.4635 63.5365 19.6227 63.0882 20.6041L43.4092 63.6871C43.241 64.0554 43.0348 64.4051 42.7942 64.7307Z" fill="#3CCD74"/>
<path d="M37.7026 62.4051L35.8448 70.6939C35.5923 71.8205 37.0591 72.4905 37.7454 71.562L42.7942 64.7307L37.7026 62.4051Z" fill="#696874"/>
<path d="M54.8467 24.5692L60.167 26.9995L61.6836 23.6794L56.3633 21.2491L54.8467 24.5692Z" fill="#F2C94C"/>
<path d="M62.1228 18.0152L60.357 17.2086C59.3754 16.7603 58.2164 17.1926 57.7679 18.174L56.3628 21.2502L61.6831 23.6803L63.0882 20.6041C63.5366 19.6227 63.1044 18.4635 62.1228 18.0152Z" fill="#696874"/>
</svg>
