<svg width="40" height="40" viewBox="0 0 40 40" fill="none" xmlns="http://www.w3.org/2000/svg">
<circle cx="20" cy="20" r="20" fill="#E3F8EB"/>
<path d="M23.75 12.5H16.25C14.1789 12.5 12.5 14.1789 12.5 16.25V23.75C12.5 25.8211 14.1789 27.5 16.25 27.5H23.75C25.8211 27.5 27.5 25.8211 27.5 23.75V16.25C27.5 14.1789 25.8211 12.5 23.75 12.5Z" fill="#3CCD74"/>
<path d="M22.9998 19.5272C23.0923 20.1514 22.9857 20.7889 22.6951 21.349C22.4045 21.9091 21.9446 22.3633 21.381 22.647C20.8174 22.9307 20.1786 23.0294 19.5556 22.9292C18.9326 22.8289 18.3571 22.5348 17.9109 22.0886C17.4647 21.6424 17.1706 21.0669 17.0703 20.4439C16.9701 19.8209 17.0688 19.1822 17.3525 18.6185C17.6362 18.0549 18.0904 17.595 18.6505 17.3044C19.2106 17.0138 19.8481 16.9072 20.4723 16.9997C21.109 17.0942 21.6984 17.3908 22.1536 17.846C22.6087 18.3011 22.9054 18.8905 22.9998 19.5272Z" stroke="#E3F8EB" stroke-width="2" stroke-linecap="round" stroke-linejoin="round"/>
<path d="M24.125 15.8752H24.1319" stroke="#E3F8EB" stroke-width="2" stroke-linecap="round" stroke-linejoin="round"/>
</svg>
