<svg width="32" height="32" viewBox="0 0 32 32" fill="none" xmlns="http://www.w3.org/2000/svg">
<g clip-path="url(#clip0)">
<path d="M16 32C24.8366 32 32 24.8366 32 16C32 7.16344 24.8366 0 16 0C7.16344 0 0 7.16344 0 16C0 24.8366 7.16344 32 16 32Z" fill="#3CCD74"/>
<path d="M19.2309 7.38452H12.7694C9.796 7.38452 7.38477 9.79575 7.38477 12.7691V19.2307C7.38477 22.2041 9.796 24.6153 12.7694 24.6153H19.2309C22.2043 24.6153 24.6155 22.2041 24.6155 19.2307V12.7691C24.6155 9.79575 22.2043 7.38452 19.2309 7.38452ZM23.0002 19.2307C23.0002 21.3091 21.3094 22.9999 19.2309 22.9999H12.7694C10.6909 22.9999 9.00015 21.3091 9.00015 19.2307V12.7691C9.00015 10.6907 10.6909 8.99991 12.7694 8.99991H19.2309C21.3094 8.99991 23.0002 10.6907 23.0002 12.7691V19.2307Z" fill="white"/>
<path d="M16.0001 11.6921C13.6212 11.6921 11.6924 13.6209 11.6924 15.9998C11.6924 18.3788 13.6212 20.3075 16.0001 20.3075C18.379 20.3075 20.3078 18.3788 20.3078 15.9998C20.3078 13.6209 18.379 11.6921 16.0001 11.6921ZM16.0001 18.6921C14.5161 18.6921 13.3078 17.4838 13.3078 15.9998C13.3078 14.5148 14.5161 13.3075 16.0001 13.3075C17.4841 13.3075 18.6924 14.5148 18.6924 15.9998C18.6924 17.4838 17.4841 18.6921 16.0001 18.6921Z" fill="white"/>
<path d="M20.6311 11.9429C20.9481 11.9429 21.2051 11.6859 21.2051 11.3689C21.2051 11.0519 20.9481 10.7949 20.6311 10.7949C20.3141 10.7949 20.0571 11.0519 20.0571 11.3689C20.0571 11.6859 20.3141 11.9429 20.6311 11.9429Z" fill="white"/>
</g>
<defs>
<clipPath id="clip0">
<rect width="32" height="32" fill="white"/>
</clipPath>
</defs>
</svg>
