<svg width="180" height="36" viewBox="0 0 180 36" fill="none" xmlns="http://www.w3.org/2000/svg">
<g clip-path="url(#clip0)">
<path d="M43.9685 15.3982V26.2367H42.311L36.3358 18.8971V26.2367H34.3394V15.3982H35.9969L41.972 22.7378V15.3982H43.9685Z" fill="#3CCD74"/>
<path d="M52.647 18.7506C53.2933 19.3338 53.615 20.2128 53.615 21.3906V26.2367H51.788V25.2313C51.5496 25.5933 51.2135 25.869 50.774 26.0586C50.3345 26.2511 49.8059 26.3459 49.1883 26.3459C48.5707 26.3459 48.0278 26.2396 47.5624 26.0299C47.097 25.8202 46.7379 25.5243 46.4851 25.148C46.2324 24.7717 46.106 24.3465 46.106 23.8697C46.106 23.1257 46.3817 22.531 46.9333 22.0829C47.4848 21.6348 48.3552 21.4107 49.5416 21.4107H51.6789V21.2872C51.6789 20.7098 51.5065 20.2645 51.1589 19.9571C50.8142 19.6469 50.3 19.4918 49.6192 19.4918C49.1538 19.4918 48.6971 19.5636 48.249 19.7072C47.8008 19.8508 47.4216 20.0519 47.1114 20.3105L46.353 18.9029C46.7868 18.5725 47.3067 18.3197 47.9157 18.1445C48.5247 17.9693 49.1711 17.8802 49.8519 17.8802C51.0699 17.8745 52.0006 18.1675 52.647 18.7506ZM50.8832 24.6022C51.2595 24.381 51.5266 24.0621 51.6818 23.6514V22.6919H49.6853C48.5707 22.6919 48.0134 23.0596 48.0134 23.7921C48.0134 24.1426 48.1513 24.4212 48.4328 24.6281C48.7114 24.8349 49.0993 24.9383 49.5933 24.9383C50.0731 24.9354 50.504 24.8234 50.8832 24.6022Z" fill="#3CCD74"/>
<path d="M61.0607 25.7856C60.8337 25.9723 60.558 26.1102 60.2334 26.205C59.9088 26.2969 59.564 26.3429 59.205 26.3429C58.2972 26.3429 57.5963 26.1044 57.0993 25.6304C56.6023 25.1565 56.3553 24.4641 56.3553 23.5564V19.5778H54.9937V18.0294H56.3553V16.1421H58.2914V18.0294H60.5063V19.5778H58.2914V23.5104C58.2914 23.9126 58.3891 24.22 58.5845 24.4325C58.7798 24.6451 59.0642 24.7485 59.4348 24.7485C59.8685 24.7485 60.2305 24.6365 60.5178 24.4067L61.0607 25.7856Z" fill="#3CCD74"/>
<path d="M70.6612 17.9692V26.2367H68.8198V25.1825C68.5096 25.553 68.1218 25.8403 67.6593 26.0414C67.1939 26.2425 66.6941 26.343 66.1569 26.343C65.0509 26.343 64.1834 26.0356 63.5485 25.4209C62.9136 24.8061 62.5977 23.8955 62.5977 22.689V17.9692H64.5338V22.4276C64.5338 23.1716 64.7004 23.726 65.0365 24.0908C65.3726 24.4585 65.8495 24.6395 66.4671 24.6395C67.1594 24.6395 67.7081 24.4241 68.116 23.9961C68.5239 23.568 68.7279 22.9504 68.7279 22.1461V17.9692H70.6612Z" fill="#3CCD74"/>
<path d="M77.9836 17.8743V19.7156C77.817 19.684 77.6676 19.6697 77.5355 19.6697C76.7829 19.6697 76.194 19.888 75.7717 20.3275C75.3494 20.767 75.1368 21.399 75.1368 22.2235V26.2337H73.2007V17.9691H75.042V19.1756C75.5993 18.308 76.5789 17.8743 77.9836 17.8743Z" fill="#3CCD74"/>
<path d="M85.5298 18.7506C86.1761 19.3338 86.4979 20.2128 86.4979 21.3906V26.2367H84.6709V25.2313C84.4324 25.5933 84.0963 25.869 83.6568 26.0586C83.2173 26.2511 82.6887 26.3459 82.0711 26.3459C81.4535 26.3459 80.9106 26.2396 80.4452 26.0299C79.9798 25.8202 79.6207 25.5243 79.368 25.148C79.1152 24.7717 78.9888 24.3465 78.9888 23.8697C78.9888 23.1257 79.2645 22.531 79.8161 22.0829C80.3676 21.6348 81.238 21.4107 82.4244 21.4107H84.5617V21.2872C84.5617 20.7098 84.3893 20.2645 84.0417 19.9571C83.697 19.6469 83.1828 19.4918 82.502 19.4918C82.0366 19.4918 81.5799 19.5636 81.1318 19.7072C80.6836 19.8508 80.3044 20.0519 79.9942 20.3105L79.2358 18.9029C79.6696 18.5725 80.1895 18.3197 80.7985 18.1445C81.4075 17.9693 82.0539 17.8802 82.7347 17.8802C83.9527 17.8745 84.8863 18.1675 85.5298 18.7506ZM83.766 24.6022C84.1423 24.381 84.4094 24.0621 84.5646 23.6514V22.6919H82.5681C81.4535 22.6919 80.8962 23.0596 80.8962 23.7921C80.8962 24.1426 81.0341 24.4212 81.3156 24.6281C81.5943 24.8349 81.9821 24.9383 82.4762 24.9383C82.9588 24.9354 83.3897 24.8234 83.766 24.6022Z" fill="#3CCD74"/>
<path d="M88.9741 14.749H90.9103V26.2367H88.9741V14.749Z" fill="#3CCD74"/>
<path d="M107.537 15.3984V26.2369H105.524V21.5919H99.919V26.2369H97.9053V15.3984H99.919V19.874H105.524V15.3984H107.537Z" fill="#3CCD74"/>
<path d="M116.215 18.7506C116.862 19.3338 117.183 20.2128 117.183 21.3906V26.2367H115.356V25.2313C115.118 25.5933 114.782 25.869 114.342 26.0586C113.903 26.2511 113.374 26.3459 112.757 26.3459C112.136 26.3459 111.596 26.2396 111.131 26.0299C110.665 25.8202 110.306 25.5243 110.054 25.148C109.801 24.7717 109.674 24.3465 109.674 23.8697C109.674 23.1257 109.95 22.531 110.502 22.0829C111.053 21.6348 111.924 21.4107 113.11 21.4107H115.247V21.2872C115.247 20.7098 115.075 20.2645 114.727 19.9571C114.383 19.6469 113.868 19.4918 113.188 19.4918C112.722 19.4918 112.265 19.5636 111.817 19.7072C111.369 19.8508 110.99 20.0519 110.68 20.3105L109.921 18.9029C110.355 18.5725 110.875 18.3197 111.484 18.1445C112.093 17.9693 112.739 17.8802 113.42 17.8802C114.638 17.8745 115.569 18.1675 116.215 18.7506ZM114.452 24.6022C114.828 24.381 115.095 24.0621 115.25 23.6514V22.6919H113.254C112.139 22.6919 111.582 23.0596 111.582 23.7921C111.582 24.1426 111.723 24.4212 112.001 24.6281C112.28 24.8349 112.668 24.9383 113.162 24.9383C113.641 24.9354 114.072 24.8234 114.452 24.6022Z" fill="#3CCD74"/>
<path d="M119.752 16.2716C119.513 16.0504 119.396 15.7746 119.396 15.4442C119.396 15.1139 119.513 14.8381 119.752 14.6169C119.99 14.3957 120.283 14.2837 120.634 14.2837C120.984 14.2837 121.28 14.39 121.516 14.5997C121.754 14.8123 121.872 15.0765 121.872 15.3983C121.872 15.7401 121.757 16.0245 121.524 16.2572C121.291 16.4899 120.996 16.6048 120.634 16.6048C120.283 16.6048 119.99 16.4956 119.752 16.2716ZM119.66 17.9693H121.596V26.2368H119.66V17.9693Z" fill="#3CCD74"/>
<path d="M128.918 17.8745V19.7159C128.752 19.6843 128.602 19.6699 128.47 19.6699C127.717 19.6699 127.129 19.8882 126.706 20.3278C126.284 20.7673 126.071 21.3992 126.071 22.2237V26.2339H124.135V17.9693H125.977V19.1758C126.534 18.3083 127.513 17.8745 128.918 17.8745Z" fill="#3CCD74"/>
<path d="M137.146 25.6708C136.264 25.1911 135.571 24.5275 135.072 23.6801C134.572 22.8326 134.322 21.8789 134.322 20.816C134.322 19.7532 134.575 18.7994 135.08 17.952C135.586 17.1046 136.281 16.4439 137.163 15.9613C138.045 15.4815 139.033 15.2402 140.127 15.2402C141.015 15.2402 141.825 15.3954 142.558 15.7056C143.29 16.0158 143.911 16.464 144.416 17.0529L143.115 18.2766C142.331 17.4292 141.366 17.0069 140.219 17.0069C139.475 17.0069 138.812 17.1707 138.223 17.4953C137.634 17.8199 137.174 18.2709 136.844 18.8512C136.514 19.4286 136.35 20.0835 136.35 20.816C136.35 21.5486 136.514 22.2035 136.844 22.7809C137.174 23.3583 137.634 23.8093 138.223 24.1368C138.812 24.4643 139.478 24.6252 140.219 24.6252C141.366 24.6252 142.331 24.1971 143.115 23.3411L144.416 24.5792C143.911 25.1681 143.287 25.6162 142.552 25.9265C141.814 26.2367 141.001 26.3919 140.113 26.3919C139.016 26.3919 138.027 26.1505 137.146 25.6708Z" fill="#3CCD74"/>
<path d="M146.163 14.749H148.099V26.2367H146.163V14.749Z" fill="#3CCD74"/>
<path d="M150.73 16.2716C150.492 16.0504 150.374 15.7746 150.374 15.4442C150.374 15.1139 150.492 14.8381 150.73 14.6169C150.969 14.3957 151.262 14.2837 151.612 14.2837C151.963 14.2837 152.258 14.39 152.494 14.5997C152.732 14.8123 152.85 15.0765 152.85 15.3983C152.85 15.7401 152.735 16.0245 152.503 16.2572C152.27 16.4899 151.974 16.6048 151.612 16.6048C151.262 16.6048 150.969 16.4956 150.73 16.2716ZM150.638 17.9693H152.574V26.2368H150.638V17.9693Z" fill="#3CCD74"/>
<path d="M162.313 18.7878C162.942 19.3968 163.258 20.2989 163.258 21.4968V26.2337H161.321V21.7467C161.321 21.0256 161.152 20.4798 160.81 20.1121C160.468 19.7473 159.983 19.5635 159.354 19.5635C158.641 19.5635 158.078 19.7789 157.665 20.2069C157.251 20.635 157.044 21.2526 157.044 22.0569V26.2366H155.108V17.9691H156.949V19.0378C157.268 18.6557 157.67 18.3656 158.156 18.1702C158.641 17.9749 159.187 17.8772 159.796 17.8772C160.845 17.8743 161.681 18.1788 162.313 18.7878Z" fill="#3CCD74"/>
<path d="M165.812 16.2716C165.573 16.0504 165.456 15.7746 165.456 15.4442C165.456 15.1139 165.573 14.8381 165.812 14.6169C166.05 14.3957 166.343 14.2837 166.694 14.2837C167.044 14.2837 167.34 14.39 167.576 14.5997C167.814 14.8123 167.932 15.0765 167.932 15.3983C167.932 15.7401 167.817 16.0245 167.584 16.2572C167.352 16.4899 167.056 16.6048 166.694 16.6048C166.343 16.6048 166.047 16.4956 165.812 16.2716ZM165.717 17.9693H167.653V26.2368H165.717V17.9693Z" fill="#3CCD74"/>
<path d="M171.678 25.803C170.997 25.4411 170.465 24.9383 170.083 24.2949C169.701 23.6485 169.512 22.9189 169.512 22.103C169.512 21.2872 169.704 20.5604 170.083 19.9198C170.465 19.2792 170.994 18.7794 171.669 18.4174C172.344 18.0555 173.117 17.8745 173.984 17.8745C174.8 17.8745 175.516 18.0383 176.127 18.3686C176.742 18.699 177.205 19.1729 177.512 19.7934L176.027 20.661C175.788 20.2789 175.493 19.9917 175.136 19.8021C174.78 19.6125 174.389 19.5148 173.967 19.5148C173.246 19.5148 172.646 19.7503 172.172 20.2186C171.698 20.6897 171.459 21.3159 171.459 22.1002C171.459 22.8844 171.695 23.5106 172.163 23.9818C172.631 24.4529 173.235 24.6856 173.967 24.6856C174.389 24.6856 174.78 24.5908 175.136 24.3983C175.493 24.2087 175.788 23.9214 176.027 23.5394L177.512 24.4069C177.193 25.0274 176.725 25.5043 176.11 25.8404C175.495 26.1765 174.786 26.3431 173.982 26.3431C173.128 26.3431 172.358 26.165 171.678 25.803Z" fill="#3CCD74"/>
<path d="M24.1786 24.8118C24.1786 31.1402 18.9216 36.242 12.5357 35.9921C6.71864 35.7623 1.99314 31.0052 1.80642 25.1852C1.74897 23.4645 2.08219 21.8271 2.72279 20.3534L2.72854 20.3391L2.9009 19.9599L2.90664 19.9484L11.7056 0.825168C12.2111 -0.275056 13.771 -0.275056 14.2766 0.825168L16.6494 5.98731C15.0867 9.15297 11.5303 16.5414 10.4818 20.3132C9.12305 25.1938 10.1199 28.1785 13.5555 27.9975C16.9883 27.8166 16.3133 24.0649 15.5434 22.798C14.7735 21.5341 13.4205 20.0863 13.6446 17.3745C13.8169 15.2947 16.2242 9.89124 17.3359 7.48396L23.0381 19.8852L23.2478 20.3391L23.2536 20.3534C23.8511 21.7208 24.1786 23.2289 24.1786 24.8118Z" fill="#3CCD74"/>
</g>
<defs>
<clipPath id="clip0">
<rect width="180" height="36" fill="white"/>
</clipPath>
</defs>
</svg>
