<svg width="162" height="33" viewBox="0 0 162 33" fill="none" xmlns="http://www.w3.org/2000/svg">
<path d="M39.3033 14.1151V24.0504H37.7839L32.3067 17.3224V24.0504H30.4766V14.1151H31.996L37.4731 20.8431V14.1151H39.3033Z" fill="#343845"/>
<path d="M47.2586 17.1882C47.8511 17.7227 48.146 18.5285 48.146 19.6082V24.0505H46.4713V23.1288C46.2527 23.4606 45.9446 23.7134 45.5417 23.8872C45.1388 24.0636 44.6543 24.1505 44.0882 24.1505C43.522 24.1505 43.0243 24.0531 42.5978 23.8609C42.1712 23.6686 41.842 23.3974 41.6103 23.0525C41.3786 22.7075 41.2627 22.3178 41.2627 21.8807C41.2627 21.1986 41.5155 20.6536 42.0211 20.2428C42.5267 19.832 43.3245 19.6266 44.4121 19.6266H46.3712V19.5134C46.3712 18.9841 46.2132 18.5759 45.8946 18.2942C45.5786 18.0098 45.1072 17.8676 44.4832 17.8676C44.0566 17.8676 43.6379 17.9334 43.2271 18.0651C42.8163 18.1967 42.4687 18.3811 42.1843 18.6181L41.4892 17.3278C41.8868 17.0249 42.3634 16.7932 42.9216 16.6326C43.4799 16.472 44.0724 16.3903 44.6965 16.3903C45.813 16.3851 46.6661 16.6536 47.2586 17.1882ZM45.6418 22.5521C45.9868 22.3494 46.2316 22.0571 46.3738 21.6805V20.801H44.5437C43.522 20.801 43.0112 21.1381 43.0112 21.8096C43.0112 22.1308 43.1376 22.3863 43.3956 22.5758C43.6511 22.7654 44.0065 22.8602 44.4595 22.8602C44.8992 22.8576 45.2942 22.7549 45.6418 22.5521Z" fill="#343845"/>
<path d="M54.9716 23.6369C54.7636 23.8081 54.5108 23.9345 54.2132 24.0214C53.9157 24.1056 53.5997 24.1477 53.2705 24.1477C52.4384 24.1477 51.7959 23.9292 51.3403 23.4947C50.8848 23.0602 50.6583 22.4256 50.6583 21.5935V17.9464H49.4102V16.5271H50.6583V14.797H52.4331V16.5271H54.4634V17.9464H52.4331V21.5514C52.4331 21.92 52.5227 22.2018 52.7017 22.3966C52.8808 22.5915 53.1415 22.6863 53.4812 22.6863C53.8788 22.6863 54.2106 22.5836 54.4739 22.3729L54.9716 23.6369Z" fill="#343845"/>
<path d="M63.7714 16.4719V24.0504H62.0835V23.084C61.7991 23.4237 61.4436 23.6871 61.0197 23.8714C60.5931 24.0557 60.1349 24.1479 59.6425 24.1479C58.6287 24.1479 57.8334 23.8661 57.2515 23.3026C56.6695 22.7391 56.3799 21.9043 56.3799 20.7984V16.4719H58.1547V20.5587C58.1547 21.2408 58.3074 21.749 58.6155 22.0834C58.9236 22.4205 59.3607 22.5864 59.9269 22.5864C60.5615 22.5864 61.0644 22.3889 61.4384 21.9965C61.8123 21.6041 61.9993 21.038 61.9993 20.3007V16.4719H63.7714Z" fill="#343845"/>
<path d="M70.483 16.3848V18.0727C70.3303 18.0438 70.1933 18.0306 70.0722 18.0306C69.3823 18.0306 68.8425 18.2307 68.4554 18.6336C68.0683 19.0365 67.8734 19.6158 67.8734 20.3716V24.0476H66.0986V16.4717H67.7865V17.5777C68.2974 16.7824 69.1953 16.3848 70.483 16.3848Z" fill="#343845"/>
<path d="M77.4012 17.1882C77.9937 17.7227 78.2886 18.5285 78.2886 19.6081V24.0504H76.6139V23.1288C76.3953 23.4606 76.0872 23.7134 75.6843 23.8872C75.2814 24.0636 74.7969 24.1505 74.2308 24.1505C73.6646 24.1505 73.1669 24.0531 72.7403 23.8608C72.3137 23.6686 71.9846 23.3974 71.7529 23.0524C71.5211 22.7075 71.4053 22.3178 71.4053 21.8806C71.4053 21.1986 71.6581 20.6535 72.1636 20.2427C72.6692 19.832 73.4671 19.6266 74.5547 19.6266H76.5138V19.5133C76.5138 18.984 76.3558 18.5759 76.0372 18.2941C75.7212 18.0097 75.2498 17.8675 74.6257 17.8675C74.1992 17.8675 73.7805 17.9334 73.3697 18.065C72.9589 18.1967 72.6113 18.381 72.3269 18.618L71.6317 17.3277C72.0294 17.0249 72.506 16.7932 73.0642 16.6325C73.6225 16.4719 74.215 16.3903 74.839 16.3903C75.9555 16.385 76.8114 16.6536 77.4012 17.1882ZM75.7844 22.5521C76.1293 22.3494 76.3742 22.0571 76.5164 21.6805V20.801H74.6863C73.6646 20.801 73.1538 21.1381 73.1538 21.8095C73.1538 22.1308 73.2801 22.3862 73.5382 22.5758C73.7936 22.7654 74.1491 22.8602 74.602 22.8602C75.0444 22.8576 75.4394 22.7549 75.7844 22.5521Z" fill="#343845"/>
<path d="M80.5586 13.5199H82.3334V24.0503H80.5586V13.5199Z" fill="#343845"/>
<path d="M97.5745 14.1152V24.0505H95.7285V19.7925H90.591V24.0505H88.7451V14.1152H90.591V18.2178H95.7285V14.1152H97.5745Z" fill="#343845"/>
<path d="M105.53 17.1882C106.123 17.7227 106.418 18.5285 106.418 19.6081V24.0504H104.743V23.1288C104.524 23.4606 104.216 23.7134 103.813 23.8872C103.41 24.0636 102.926 24.1505 102.36 24.1505C101.791 24.1505 101.296 24.0531 100.869 23.8608C100.443 23.6686 100.113 23.3974 99.8818 23.0524C99.65 22.7075 99.5342 22.3178 99.5342 21.8806C99.5342 21.1986 99.787 20.6535 100.293 20.2427C100.798 19.832 101.596 19.6266 102.684 19.6266H104.643V19.5133C104.643 18.984 104.485 18.5759 104.166 18.2941C103.85 18.0097 103.379 17.8675 102.755 17.8675C102.328 17.8675 101.909 17.9334 101.499 18.065C101.088 18.1967 100.74 18.381 100.456 18.618L99.7606 17.3277C100.158 17.0249 100.635 16.7932 101.193 16.6325C101.751 16.4719 102.344 16.3903 102.968 16.3903C104.084 16.385 104.938 16.6536 105.53 17.1882ZM103.913 22.5521C104.258 22.3494 104.503 22.0571 104.645 21.6805V20.801H102.815C101.794 20.801 101.283 21.1381 101.283 21.8095C101.283 22.1308 101.412 22.3862 101.667 22.5758C101.923 22.7654 102.278 22.8602 102.731 22.8602C103.171 22.8576 103.566 22.7549 103.913 22.5521Z" fill="#343845"/>
<path d="M108.771 14.9156C108.552 14.7129 108.444 14.4601 108.444 14.1572C108.444 13.8544 108.552 13.6016 108.771 13.3989C108.989 13.1961 109.258 13.0934 109.579 13.0934C109.901 13.0934 110.172 13.1908 110.388 13.3831C110.606 13.5779 110.714 13.8202 110.714 14.1151C110.714 14.4285 110.609 14.6892 110.396 14.9024C110.182 15.1157 109.911 15.2211 109.579 15.2211C109.258 15.2211 108.989 15.121 108.771 14.9156ZM108.687 16.4719H110.461V24.0504H108.687V16.4719Z" fill="#343845"/>
<path d="M117.173 16.3849V18.0728C117.021 18.0439 116.884 18.0307 116.763 18.0307C116.073 18.0307 115.533 18.2308 115.146 18.6337C114.759 19.0366 114.564 19.6159 114.564 20.3717V24.0477H112.789V16.4718H114.477V17.5778C114.988 16.7825 115.886 16.3849 117.173 16.3849Z" fill="#343845"/>
<path d="M124.715 23.5317C123.907 23.0919 123.272 22.4837 122.814 21.7069C122.356 20.93 122.127 20.0558 122.127 19.0815C122.127 18.1072 122.359 17.2329 122.822 16.4561C123.286 15.6793 123.923 15.0737 124.731 14.6313C125.54 14.1915 126.445 13.9703 127.449 13.9703C128.262 13.9703 129.005 14.1125 129.677 14.3969C130.348 14.6813 130.917 15.0921 131.38 15.6319L130.187 16.7537C129.468 15.9769 128.584 15.5898 127.533 15.5898C126.851 15.5898 126.243 15.7399 125.703 16.0374C125.163 16.335 124.742 16.7484 124.439 17.2803C124.136 17.8096 123.986 18.41 123.986 19.0815C123.986 19.753 124.136 20.3534 124.439 20.8826C124.742 21.4119 125.163 21.8253 125.703 22.1255C126.243 22.4257 126.854 22.5732 127.533 22.5732C128.584 22.5732 129.468 22.1808 130.187 21.3961L131.38 22.5311C130.917 23.0709 130.345 23.4817 129.671 23.7661C128.994 24.0505 128.249 24.1927 127.436 24.1927C126.43 24.1927 125.524 23.9715 124.715 23.5317Z" fill="#343845"/>
<path d="M132.981 13.5199H134.756V24.0503H132.981V13.5199Z" fill="#343845"/>
<path d="M137.168 14.9156C136.95 14.7129 136.842 14.4601 136.842 14.1572C136.842 13.8544 136.95 13.6016 137.168 13.3989C137.387 13.1961 137.655 13.0934 137.977 13.0934C138.298 13.0934 138.569 13.1908 138.785 13.3831C139.004 13.5779 139.112 13.8202 139.112 14.1151C139.112 14.4285 139.006 14.6892 138.793 14.9024C138.58 15.1157 138.309 15.2211 137.977 15.2211C137.655 15.2211 137.387 15.121 137.168 14.9156ZM137.084 16.4719H138.859V24.0504H137.084V16.4719Z" fill="#343845"/>
<path d="M147.786 17.2223C148.363 17.7805 148.652 18.6074 148.652 19.7055V24.0477H146.877V19.9345C146.877 19.2736 146.722 18.7733 146.409 18.4362C146.095 18.1018 145.65 17.9333 145.074 17.9333C144.421 17.9333 143.904 18.1308 143.525 18.5231C143.146 18.9155 142.956 19.4816 142.956 20.2189V24.0503H141.182V16.4718H142.87V17.4514C143.162 17.1012 143.531 16.8352 143.976 16.6561C144.421 16.4771 144.921 16.3875 145.479 16.3875C146.44 16.3849 147.207 16.664 147.786 17.2223Z" fill="#343845"/>
<path d="M150.993 14.9156C150.774 14.7129 150.666 14.4601 150.666 14.1572C150.666 13.8544 150.774 13.6016 150.993 13.3989C151.211 13.1961 151.48 13.0934 151.801 13.0934C152.122 13.0934 152.393 13.1908 152.609 13.3831C152.828 13.5779 152.936 13.8202 152.936 14.1151C152.936 14.4285 152.831 14.6892 152.617 14.9024C152.404 15.1157 152.133 15.2211 151.801 15.2211C151.48 15.2211 151.208 15.121 150.993 14.9156ZM150.906 16.4719H152.68V24.0504H150.906V16.4719Z" fill="#343845"/>
<path d="M156.37 23.6527C155.746 23.3209 155.259 22.8601 154.909 22.2702C154.559 21.6778 154.385 21.0089 154.385 20.2611C154.385 19.5132 154.561 18.847 154.909 18.2598C155.259 17.6726 155.744 17.2144 156.362 16.8826C156.981 16.5508 157.689 16.3849 158.485 16.3849C159.233 16.3849 159.888 16.535 160.449 16.8378C161.013 17.1406 161.437 17.5751 161.718 18.1439L160.357 18.9392C160.138 18.5889 159.867 18.3256 159.541 18.1518C159.214 17.978 158.856 17.8885 158.469 17.8885C157.808 17.8885 157.258 18.1044 156.823 18.5336C156.389 18.9655 156.17 19.5395 156.17 20.2584C156.17 20.9773 156.386 21.5514 156.815 21.9832C157.244 22.4151 157.797 22.6284 158.469 22.6284C158.856 22.6284 159.214 22.5415 159.541 22.365C159.867 22.1912 160.138 21.9279 160.357 21.5777L161.718 22.3729C161.426 22.9417 160.997 23.3788 160.433 23.6869C159.87 23.995 159.219 24.1478 158.482 24.1478C157.7 24.1478 156.994 23.9845 156.37 23.6527Z" fill="#343845"/>
<path d="M21.1631 22.7443C21.1631 28.5454 16.3442 33.222 10.4905 32.9929C5.15812 32.7823 0.826415 28.4216 0.655253 23.0866C0.602588 21.5093 0.908046 20.0083 1.49526 18.6575L1.50053 18.6443L1.65852 18.2967L1.66379 18.2862L9.72946 0.756571C10.1929 -0.251967 11.6228 -0.251967 12.0862 0.756571L14.2613 5.48854C12.8288 8.39039 9.56883 15.1631 8.60769 18.6206C7.36216 23.0945 8.2759 25.8305 11.4253 25.6646C14.572 25.4987 13.9532 22.0596 13.2475 20.8984C12.5418 19.7397 11.3015 18.4126 11.5069 15.9268C11.6649 14.0203 13.8716 9.06714 14.8906 6.86047L20.1177 18.2282L20.3099 18.6443L20.3152 18.6575C20.8629 19.9109 21.1631 21.2934 21.1631 22.7443Z" fill="url(#paint0_linear)"/>
<defs>
<linearGradient id="paint0_linear" x1="10.9067" y1="-1.22554" x2="10.9067" y2="38.8973" gradientUnits="userSpaceOnUse">
<stop stop-color="#3CCD74"/>
<stop offset="1" stop-color="#29B6F6"/>
</linearGradient>
</defs>
</svg>
